<?xml version="1.0" encoding="UTF-8" standalone="no"?>
<svg
   xmlns:dc="http://purl.org/dc/elements/1.1/"
   xmlns:cc="http://creativecommons.org/ns#"
   xmlns:rdf="http://www.w3.org/1999/02/22-rdf-syntax-ns#"
   xmlns:svg="http://www.w3.org/2000/svg"
   xmlns="http://www.w3.org/2000/svg"
   xmlns:sodipodi="http://sodipodi.sourceforge.net/DTD/sodipodi-0.dtd"
   xmlns:inkscape="http://www.inkscape.org/namespaces/inkscape"
   enable-background="new 0 0 128 128"
   viewBox="0 0 64.000002 64.000002"
   version="1.1"
   id="svg469"
   sodipodi:docname="favicon.svg"
   width="64"
   height="64"
   inkscape:version="0.92.4 (5da689c313, 2019-01-14)">
  <metadata
     id="metadata475">
    <rdf:RDF>
      <cc:Work
         rdf:about="">
        <dc:format>image/svg+xml</dc:format>
        <dc:type
           rdf:resource="http://purl.org/dc/dcmitype/StillImage" />
        <dc:title></dc:title>
      </cc:Work>
    </rdf:RDF>
  </metadata>
  <defs
     id="defs473" />
  <sodipodi:namedview
     pagecolor="#ffffff"
     bordercolor="#666666"
     borderopacity="1"
     objecttolerance="10"
     gridtolerance="10"
     guidetolerance="10"
     inkscape:pageopacity="0"
     inkscape:pageshadow="2"
     inkscape:window-width="1461"
     inkscape:window-height="737"
     id="namedview471"
     showgrid="false"
     fit-margin-top="0"
     fit-margin-left="0"
     fit-margin-right="0"
     fit-margin-bottom="0"
     inkscape:zoom="1.84375"
     inkscape:cx="60.700895"
     inkscape:cy="59.891051"
     inkscape:window-x="70"
     inkscape:window-y="27"
     inkscape:window-maximized="0"
     inkscape:current-layer="svg469" />
  <path
     d="m 60.103385,41.694428 c 2.282857,-0.07908 2.530649,-2.947152 2.873341,-3.268755 -0.395414,-0.08436 -1.571111,-1.850538 -3.194944,-1.955981 0.02636,-1.212603 -0.02636,-2.462111 -0.158166,-3.753796 0.38487,-0.05272 0.769739,-0.137077 1.138792,-0.247793 2.578099,-0.785556 1.739822,-4.138666 2.008703,-4.613163 -0.474497,0.02109 -2.430477,-1.571111 -4.286287,-1.291685 -0.189798,-0.743378 -0.405958,-1.497301 -0.643206,-2.277584 -0.100172,-0.332148 -0.21616,-0.659023 -0.332148,-0.980627 0.115988,-0.05799 0.226704,-0.12126 0.33742,-0.184526 2.17214,-1.296958 0.453408,-4.217749 0.569396,-4.718606 -0.379598,0.105443 -2.135235,-0.664296 -3.674714,-0.43232 -0.421774,-0.595757 -0.880455,-1.170425 -1.360223,-1.724004 0.08436,-0.07381 0.163437,-0.152894 0.24252,-0.231976 1.818904,-1.834721 -0.848822,-4.391731 -0.880455,-4.924222 -0.395411,0.221432 -2.920788,-0.263609 -4.412817,0.72229 -0.875182,-0.585213 -1.781998,-1.117704 -2.72572,-1.597473 C 45.968658,8.3267654 43.427465,6.5869444 43.29566,6.1177194 42.921335,6.4235064 40.032177,6.3127904 38.76158,7.6993754 37.72296,7.4515824 36.668523,7.2565114 35.608813,7.1141624 34.923429,5.442879 32.266248,4.694229 32.039544,4.293543 31.76539,4.667868 29.292735,5.442879 28.53354,6.9981744 c -1.15988,0.115988 -2.303945,0.300515 -3.432192,0.55358 -1.333863,-1.22842 -4.022678,-1.138792 -4.381187,-1.434035 -0.126532,0.453408 -2.477927,2.087786 -2.330306,3.8856006 -1.033348,0.516674 -2.024519,1.064981 -2.96824,1.650194 -1.507845,-0.775011 -3.774885,-0.353236 -4.14921,-0.564124 -0.03691,0.50613 -2.4304778,2.836436 -1.117704,4.639524 -0.722289,0.706472 -1.3918566,1.444578 -2.0139745,2.214317 -1.1756974,0.110716 -2.2617676,0.532491 -2.5464656,0.453408 0.094899,0.411231 -1.0544373,2.472656 -0.2425206,3.90669 -0.6853843,1.407674 -1.217875,2.889158 -1.5922002,4.449725 -1.1967862,0.379597 -2.2037736,1.112431 -2.5253769,1.096614 0.2636093,0.463953 -0.53249078,3.701075 1.8821702,4.560441 0.00527,1.360224 0.1159881,2.767897 0.3374199,4.217748 -1.223147,0.469225 -2.103602,1.713461 -2.4304776,1.787271 0.3426921,0.321604 0.5904848,3.189673 2.8733412,3.268755 0.2425205,0.01055 0.4850411,0 0.7275616,-0.02109 0.1792543,0.585212 0.3743252,1.170425 0.5852126,1.766182 0.2794261,0.769739 0.5272188,1.460395 0.759195,2.077241 -0.021089,-0.0053 -0.042178,-0.0053 -0.063266,-0.01054 -2.1352353,-0.247793 -2.7995307,2.346122 -3.1844003,2.546465 0.3954139,0.205615 1.4603954,2.667726 3.4901871,2.214318 0.5430351,-0.12126 1.0755259,-0.326875 1.5289338,-0.606301 0.5219464,1.012259 1.1018868,1.934892 1.8768981,3.089497 -1.845265,0.3796 -1.6712828,2.7099 -1.9507087,2.96824 0.4217749,0.0844 2.129963,2.01398 3.8170619,1.12825 0.885727,-0.46395 1.660739,-1.20733 1.781999,-2.05615 l 1.434034,-0.57994 c 0.695929,0.48504 1.734549,1.09134 2.767898,0.5483 0.970082,-0.50613 1.787271,-1.37604 1.634377,-2.34085 l 2.815347,-1.144058 c -0.04218,0.221431 -0.07908,0.390141 -0.137076,0.448135 0.353236,0.07381 1.787271,1.687093 3.205488,0.948993 0.980627,-0.511401 1.792544,-1.428762 1.418218,-2.41466 l -0.01582,-0.04745 c -0.0949,-0.231976 -0.253065,-0.416503 -0.442864,-0.569396 l 3.073684,-1.249508 c 0.242521,0.790828 0.511402,1.523662 0.695929,1.660739 0.04745,0.0369 0.100171,0.06854 0.152893,0.0949 -0.01054,0.03163 -0.01054,0.06854 -0.02109,0.100171 0.268881,1.175698 0.300514,3.258204 -0.131805,5.467254 l -3.263483,1.23369 0.04218,0.1529 2.636092,-0.65903 c 0.115988,-0.0264 0.210888,0.0949 0.152894,0.19507 l -1.286414,2.29868 0.137077,0.0527 1.998159,-2.37248 c 0.04218,-0.0527 0.12126,-0.0633 0.179254,-0.0264 l 1.660738,1.12825 0.01582,0.0211 0.01054,-0.005 0.01055,0.005 0.01582,-0.0211 1.660739,-1.12825 c 0.05799,-0.0369 0.137077,-0.0264 0.179254,0.0264 l 1.998158,2.37248 0.137077,-0.0527 -1.286413,-2.29868 c -0.05799,-0.10544 0.03691,-0.2267 0.152893,-0.19507 l 2.636093,0.65903 0.04218,-0.1529 -3.258211,-1.23369 h 0.01054 c -0.432319,-2.20905 -0.405958,-4.296828 -0.131804,-5.467254 -0.01055,-0.03163 -0.01055,-0.06854 -0.02109,-0.100171 0.05272,-0.02636 0.105444,-0.05799 0.152893,-0.0949 0.195071,-0.14235 0.474497,-0.927905 0.727562,-1.755638 l 3.574542,1.323318 c -0.200343,0.152894 -0.363781,0.347965 -0.463953,0.590485 l -0.01582,0.04745 c -0.374325,0.985898 0.437591,1.903259 1.418218,2.41466 1.418218,0.74338 2.852252,-0.875182 3.205489,-0.948993 -0.07381,-0.06854 -0.110716,-0.321603 -0.173983,-0.637934 l 2.472656,0.91736 c -0.01055,0.02109 -0.02636,0.03691 -0.03163,0.05799 -0.0053,0.01582 -0.01582,0.03691 -0.02109,0.05272 -0.411231,1.080807 0.479769,2.087787 1.555294,2.646637 1.391857,0.72757 2.794259,-0.61157 3.35311,-0.95953 l 0.891,0.33214 c -0.305787,1.11244 0.62739,2.13524 1.739821,2.71518 1.687097,0.88046 3.395285,-1.04389 3.81706,-1.12825 -0.253065,-0.23725 -0.131805,-2.15105 -1.449851,-2.8048 0.558851,-1.080803 1.070253,-2.129968 1.539478,-3.158044 0.416503,0.231976 0.890999,0.405958 1.370768,0.516674 2.029792,0.453408 3.094773,-2.008702 3.490187,-2.214318 -0.384869,-0.200343 -1.043893,-2.762625 -3.152767,-2.546465 0.442864,-1.291686 0.7961,-2.567555 1.064982,-3.848696 0.28997,0.04218 0.595757,0.05272 0.896271,0.04218 z M 33.663377,55.818615 c -0.0053,0 -0.01054,0.005 -0.01582,0.005 l -1.650194,1.72401 -1.650194,-1.72401 c -0.321603,-2.03506 0.38487,-4.423364 0.891,-5.567428 -0.03691,-0.07908 -0.06327,-0.158165 -0.0949,-0.237248 0.179255,-0.195071 0.295243,-0.690657 0.363781,-1.165153 0.163438,0.01054 0.326876,0.02636 0.500858,0.02636 0.173982,0 0.33742,-0.01054 0.500857,-0.02109 0.06854,0.474497 0.184527,0.96481 0.363781,1.159881 -0.03163,0.07908 -0.05799,0.158165 -0.0949,0.237248 0.495585,1.144064 1.202058,3.52709 0.885727,5.56216 z"
     stroke-miterlimit="10"
     id="path2"
     inkscape:connector-curvature="0"
     style="fill:none;stroke:#0e7eb3;stroke-width:2.04676795;stroke-linecap:round;stroke-linejoin:round;stroke-miterlimit:10" />
  <radialGradient
     id="e"
     cx="64.456001"
     cy="88.718002"
     r="57.044998"
     gradientTransform="matrix(0.52721856,0,0,0.47797635,-1.7393495,-0.94990904)"
     gradientUnits="userSpaceOnUse">
    <stop
       stop-color="#133C65"
       offset="0"
       id="stop4" />
    <stop
       stop-color="#0D6E7B"
       offset=".1164"
       id="stop6" />
    <stop
       stop-color="#079A8F"
       offset=".2375"
       id="stop8" />
    <stop
       stop-color="#03BA9D"
       offset=".3461"
       id="stop10" />
    <stop
       stop-color="#01CEA6"
       offset=".4368"
       id="stop12" />
    <stop
       stop-color="#00D5A9"
       offset=".4987"
       id="stop14" />
    <stop
       stop-color="#00D5A9"
       offset=".9967"
       id="stop16" />
  </radialGradient>
  <path
     d="M 32.002639,47.193317 11.536014,55.507555 C 7.9562,50.388262 7.4817033,49.745055 5.2146633,43.439521 -0.66909584,27.064113 6.2691006,15.365133 20.082227,9.1966764 33.895353,3.028218 53.302266,9.3073914 57.841618,24.290943 c 3.838151,12.66379 1.792543,19.955223 -4.180844,30.916092 z"
     id="path19"
     inkscape:connector-curvature="0"
     style="fill:url(#e);stroke-width:0.52721858" />
  <path
     d="m 28.349014,8.4111204 c 0.374325,1.7503656 1.613289,3.5060026 3.685258,3.5639966 h 0.100171 c 2.045608,0 3.221306,-1.855809 3.579814,-3.5639966 C 36.257292,5.801388 32.313697,4.783856 32.034272,4.293543 31.69158,4.76804 27.805979,5.875199 28.349014,8.4111204 Z"
     id="path21"
     inkscape:connector-curvature="0"
     style="fill:#00b5a9;stroke-width:0.52721858" />
  <path
     d="m 32.034272,6.3602404 c 0,0 -2.340851,1.539478 -2.340851,2.773169 0,1.2336916 1.049165,2.2354066 2.340851,2.2354066 1.291685,0 2.34085,-1.001715 2.34085,-2.2354066 0,-1.228419 -2.34085,-2.773169 -2.34085,-2.773169 z"
     id="path23"
     inkscape:connector-curvature="0"
     style="fill:#deb366;stroke-width:0.52721858" />
  <path
     d="m 32.034272,7.2143344 c 0,0 -1.781999,1.370768 -1.781999,2.245951 0,0.8751826 0.7961,1.5869276 1.776726,1.5869276 0.980627,0 1.781999,-0.711745 1.781999,-1.5869276 0.0053,-0.875183 -1.776726,-2.245951 -1.776726,-2.245951 z"
     id="path25"
     inkscape:connector-curvature="0"
     style="fill:#0084ff;stroke-width:0.52721858" />
  <path
     d="m 32.034272,8.2107774 c 0,0 -1.244236,0.817189 -1.244236,1.370768 0,0.5535796 0.558852,1.0069876 1.244236,1.0069876 0.690656,0 1.244235,-0.453408 1.244235,-1.0069876 0,-0.558852 -1.244235,-1.370768 -1.244235,-1.370768 z"
     id="path27"
     inkscape:connector-curvature="0"
     style="fill:#2b1fa6;stroke-width:0.52721858" />
  <path
     d="m 28.644256,16.846617 c 0.347965,1.608017 1.481484,3.226577 3.390016,3.279299 h 0.0949 c 1.88217,0 2.962968,-1.702916 3.295116,-3.279299 0.500858,-2.398845 -3.131678,-3.337294 -3.384743,-3.785429 -0.321604,0.437591 -3.896145,1.455123 -3.395288,3.785429 z"
     id="path29"
     inkscape:connector-curvature="0"
     style="fill:#008777;stroke-width:0.52721858" />
  <path
     d="m 32.034272,14.964447 c 0,0 -2.151052,1.418218 -2.151052,2.551737 0,1.13352 0.96481,2.056153 2.151052,2.056153 1.191514,0 2.156324,-0.922633 2.156324,-2.056153 0,-1.133519 -2.156324,-2.551737 -2.156324,-2.551737 z"
     id="path31"
     inkscape:connector-curvature="0"
     style="fill:#deb366;stroke-width:0.52721858" />
  <path
     d="m 32.034272,15.750002 c 0,0 -1.63965,1.260053 -1.63965,2.066697 0,0.806644 0.732834,1.460395 1.634377,1.460395 0.906816,0 1.63965,-0.653751 1.63965,-1.460395 0.0053,-0.806644 -1.634377,-2.066697 -1.634377,-2.066697 z"
     id="path33"
     inkscape:connector-curvature="0"
     style="fill:#0084ff;stroke-width:0.52721858" />
  <path
     d="m 32.034272,16.66209 c 0,0 -1.144065,0.748651 -1.144065,1.260053 0,0.511402 0.511402,0.927904 1.144065,0.927904 0.632662,0 1.144064,-0.416502 1.144064,-0.927904 0,-0.511402 -1.144064,-1.260053 -1.144064,-1.260053 z"
     id="path35"
     inkscape:connector-curvature="0"
     style="fill:#2b1fa6;stroke-width:0.52721858" />
  <path
     d="m 29.624883,25.234664 c 0.247793,1.144064 1.054437,2.293401 2.409389,2.330306 h 0.06854 c 1.339135,0 2.108874,-1.212602 2.34085,-2.330306 0.353237,-1.702916 -2.224862,-2.372483 -2.404116,-2.688814 -0.231976,0.305786 -2.767898,1.033348 -2.414661,2.688814 z"
     id="path37"
     inkscape:connector-curvature="0"
     style="fill:#00717d;stroke-width:0.52721858" />
  <path
     d="m 32.034272,23.895529 c 0,0 -1.528934,1.006988 -1.528934,1.813632 0,0.806644 0.685384,1.460395 1.528934,1.460395 0.843549,0 1.528933,-0.653751 1.528933,-1.460395 0,-0.806644 -1.528933,-1.813632 -1.528933,-1.813632 z"
     id="path39"
     inkscape:connector-curvature="0"
     style="fill:#deb366;stroke-width:0.52721858" />
  <path
     d="m 32.034272,24.454381 c 0,0 -1.165153,0.896271 -1.165153,1.465667 0,0.574669 0.521946,1.038621 1.15988,1.038621 0.643207,0 1.165153,-0.463952 1.165153,-1.038621 0.0053,-0.569396 -1.15988,-1.465667 -1.15988,-1.465667 z"
     id="path41"
     inkscape:connector-curvature="0"
     style="fill:#0084ff;stroke-width:0.52721858" />
  <path
     d="m 32.034272,25.10286 c 0,0 -0.811917,0.53249 -0.811917,0.896271 0,0.363781 0.363781,0.659023 0.811917,0.659023 0.448135,0 0.811916,-0.295242 0.811916,-0.659023 0,-0.363781 -0.811916,-0.896271 -0.811916,-0.896271 z"
     id="path43"
     inkscape:connector-curvature="0"
     style="fill:#2b1fa6;stroke-width:0.52721858" />
  <ellipse
     cx="32.002636"
     cy="36.343159"
     rx="9.1419697"
     ry="12.679606"
     id="ellipse45"
     style="fill:#00e8d9;stroke-width:0.52721858" />
  <path
     d="m 18.748364,11.031396 c 1.028076,1.502573 2.878613,2.752081 4.882044,2.177413 0.03163,-0.01055 0.06327,-0.01582 0.100171,-0.02636 1.961253,-0.616846 2.377756,-2.683543 2.071969,-4.3706416 -0.469224,-2.572827 -4.634251,-2.325034 -5.087659,-2.694087 -0.158165,0.543035 -3.453281,2.741537 -1.966525,4.9136756 z"
     id="path47"
     inkscape:connector-curvature="0"
     style="fill:#00b5a9;stroke-width:0.52721858" />
  <path
     d="m 21.495173,8.0315234 c 0,0 -1.655467,2.1299626 -1.186242,3.2687546 0.469224,1.138792 1.850537,1.745093 3.089501,1.360224 1.238963,-0.390142 1.861081,-1.629106 1.391857,-2.7678976 -0.469225,-1.144064 -3.295116,-1.861081 -3.295116,-1.861081 z"
     id="path49"
     inkscape:connector-curvature="0"
     style="fill:#deb366;stroke-width:0.52721858" />
  <path
     d="m 21.822048,8.8223504 c 0,0 -1.180969,1.7978156 -0.848822,2.6097316 0.332148,0.806645 1.365496,1.223147 2.303945,0.927905 0.938449,-0.295242 1.434035,-1.191514 1.101887,-2.003431 -0.332148,-0.8119156 -2.55701,-1.5342056 -2.55701,-1.5342056 z"
     id="path51"
     inkscape:connector-curvature="0"
     style="fill:#0084ff;stroke-width:0.52721858" />
  <path
     d="m 22.196373,9.7397114 c 0,0 -0.880455,1.1282466 -0.669567,1.6396486 0.210887,0.511402 0.91736,0.764467 1.576383,0.55358 0.659023,-0.205615 1.017532,-0.790828 0.806645,-1.307502 -0.210888,-0.511402 -1.713461,-0.8857266 -1.713461,-0.8857266 z"
     id="path53"
     inkscape:connector-curvature="0"
     style="fill:#2b1fa6;stroke-width:0.52721858" />
  <path
     d="m 22.365083,18.786781 c 0.906816,1.191514 2.477927,2.14578 4.085944,1.602745 0.02636,-0.01055 0.05272,-0.01582 0.07908,-0.02636 1.571111,-0.574669 1.818904,-2.277584 1.492028,-3.643081 -0.500857,-2.082513 -3.896145,-1.729276 -4.281014,-2.013974 -0.100172,0.448135 -2.688815,2.356667 -1.376041,4.080671 z"
     id="path55"
     inkscape:connector-curvature="0"
     style="fill:#008777;stroke-width:0.52721858" />
  <path
     d="m 24.468685,16.240316 c 0,0 -1.25478,1.797815 -0.817188,2.709903 0.437591,0.912088 1.5922,1.360224 2.588643,0.996443 0.991171,-0.363781 1.444579,-1.397129 1.006987,-2.314489 -0.437591,-0.912089 -2.778442,-1.391857 -2.778442,-1.391857 z"
     id="path57"
     inkscape:connector-curvature="0"
     style="fill:#deb366;stroke-width:0.52721858" />
  <path
     d="m 24.7692,16.867706 c 0,0 -0.885727,1.513117 -0.574668,2.161596 0.311059,0.648479 1.170425,0.954265 1.924347,0.674839 0.753923,-0.274153 1.117704,-1.028076 0.806645,-1.676555 C 26.619737,17.38438 24.7692,16.867706 24.7692,16.867706 Z"
     id="path59"
     inkscape:connector-curvature="0"
     style="fill:#0084ff;stroke-width:0.52721858" />
  <path
     d="m 25.122436,17.605812 c 0,0 -0.669567,0.954265 -0.469224,1.365496 0.195071,0.41123 0.785555,0.590484 1.312774,0.395414 0.527219,-0.195071 0.7961,-0.685385 0.601029,-1.096615 -0.200343,-0.41123 -1.444579,-0.664295 -1.444579,-0.664295 z"
     id="path61"
     inkscape:connector-curvature="0"
     style="fill:#2b1fa6;stroke-width:0.52721858" />
  <path
     d="m 17.767737,23.80063 c 1.428763,0.738106 3.347838,1.001715 4.560441,-0.126533 0.02109,-0.01582 0.04218,-0.03691 0.05799,-0.05272 1.154609,-1.138792 0.532491,-2.804802 -0.453408,-3.927778 -1.507845,-1.718732 -4.444452,-0.06854 -4.940038,-0.179254 0.126533,0.448136 -1.296958,3.216033 0.775011,4.286287 z"
     id="path63"
     inkscape:connector-curvature="0"
     style="fill:#008777;stroke-width:0.52721858" />
  <path
     d="m 18.421488,20.637318 c 0,0 -0.253065,2.140508 0.606302,2.810075 0.859366,0.669568 2.145779,0.62739 2.878613,-0.0949 0.732834,-0.722289 0.62739,-1.850537 -0.231976,-2.520105 -0.859366,-0.664295 -3.252939,-0.195071 -3.252939,-0.19507 z"
     id="path65"
     inkscape:connector-curvature="0"
     style="fill:#deb366;stroke-width:0.52721858" />
  <path
     d="m 19.017245,21.101271 c 0,0 -0.05272,1.734549 0.55358,2.209045 0.611573,0.474497 1.555295,0.416503 2.108874,-0.131804 0.55358,-0.548307 0.511402,-1.376041 -0.100171,-1.85581 -0.606302,-0.474496 -2.562283,-0.221431 -2.562283,-0.221431 z"
     id="path67"
     inkscape:connector-curvature="0"
     style="fill:#0084ff;stroke-width:0.52721858" />
  <path
     d="m 19.707902,21.639034 c 0,0 -0.137077,1.138792 0.247792,1.439306 0.38487,0.300515 1.01226,0.237249 1.402402,-0.147621 0.390142,-0.384869 0.390142,-0.938449 0.0053,-1.238964 -0.38487,-0.305786 -1.655466,-0.05272 -1.655466,-0.05272 z"
     id="path69"
     inkscape:connector-curvature="0"
     style="fill:#2b1fa6;stroke-width:0.52721858" />
  <path
     d="m 24.162899,28.751212 c 1.033348,0.616846 2.446294,0.906816 3.390015,0.126532 0.01582,-0.01054 0.03163,-0.02636 0.04745,-0.03691 0.906815,-0.790828 0.506129,-2.061424 -0.179255,-2.947152 -1.049165,-1.349679 -3.300388,-0.268881 -3.664169,-0.374325 0.07908,0.342692 -1.091342,2.335578 0.405959,3.23185 z"
     id="path71"
     inkscape:connector-curvature="0"
     style="fill:#00717d;stroke-width:0.52721858" />
  <path
     d="m 24.774472,26.43145 c 0,0 -0.274154,1.581656 0.33742,2.119419 0.611573,0.537763 1.565839,0.569396 2.140507,0.06854 0.574669,-0.500857 0.543035,-1.344407 -0.06854,-1.88217 -0.606301,-0.543035 -2.409389,-0.305787 -2.409389,-0.305787 z"
     id="path73"
     inkscape:connector-curvature="0"
     style="fill:#deb366;stroke-width:0.52721858" />
  <path
     d="m 25.201519,26.800503 c 0,0 -0.110716,1.286414 0.321603,1.671283 0.43232,0.38487 1.138792,0.38487 1.571112,0.0053 0.432319,-0.379597 0.437591,-1.001715 0,-1.381312 -0.43232,-0.38487 -1.892715,-0.295243 -1.892715,-0.295243 z"
     id="path75"
     inkscape:connector-curvature="0"
     style="fill:#0084ff;stroke-width:0.52721858" />
  <path
     d="m 25.691832,27.238095 c 0,0 -0.147621,0.838277 0.126533,1.080798 0.274153,0.24252 0.743378,0.226704 1.049165,-0.04218 0.305786,-0.268881 0.326875,-0.680112 0.05272,-0.922632 -0.274154,-0.242521 -1.22842,-0.115988 -1.22842,-0.115988 z"
     id="path77"
     inkscape:connector-curvature="0"
     style="fill:#2b1fa6;stroke-width:0.52721858" />
  <path
     d="m 10.381405,16.024156 c 1.25478,1.265324 3.23185,2.177413 5.003304,1.339135 0.02636,-0.01582 0.058,-0.02636 0.08435,-0.04218 1.718733,-0.869911 1.708189,-2.883886 1.091343,-4.428636 -0.943721,-2.356667 -4.802961,-1.513118 -5.298547,-1.792543 -0.03163,0.53249 -2.6940864,3.0895 -0.880455,4.924221 z"
     id="path79"
     inkscape:connector-curvature="0"
     style="fill:#00b5a9;stroke-width:0.52721858" />
  <path
     d="m 12.374291,12.787034 c 0,0 -1.138792,2.251223 -0.474496,3.258211 0.664295,1.006987 2.077241,1.37604 3.163311,0.827733 1.08607,-0.548307 1.428762,-1.813632 0.764467,-2.820619 -0.659023,-1.006988 -3.453282,-1.265325 -3.453282,-1.265325 z"
     id="path81"
     inkscape:connector-curvature="0"
     style="fill:#deb366;stroke-width:0.52721858" />
  <path
     d="m 12.832972,13.482962 c 0,0 -0.759195,1.871626 -0.289971,2.588644 0.469225,0.717017 1.51839,0.954265 2.346123,0.537763 0.822461,-0.416503 1.112431,-1.339136 0.643207,-2.050881 -0.469225,-0.717017 -2.699359,-1.075526 -2.699359,-1.075526 z"
     id="path83"
     inkscape:connector-curvature="0"
     style="fill:#0084ff;stroke-width:0.52721858" />
  <path
     d="m 13.365462,14.294879 c 0,0 -0.606301,1.196786 -0.311059,1.650194 0.300515,0.453408 1.006988,0.585213 1.586928,0.295243 0.574669,-0.289971 0.801373,-0.896272 0.50613,-1.34968 -0.300514,-0.45868 -1.781999,-0.595757 -1.781999,-0.595757 z"
     id="path85"
     inkscape:connector-curvature="0"
     style="fill:#2b1fa6;stroke-width:0.52721858" />
  <path
     d="m 6.1583847,23.12579 c 1.4973008,0.896272 3.5587253,1.30223 4.9453103,0.147621 0.02109,-0.02109 0.04745,-0.0369 0.06854,-0.05799 1.323319,-1.170425 0.759195,-3.020962 -0.237248,-4.307376 -1.5183915,-1.966529 -4.8082354,-0.35324 -5.3407261,-0.500861 0.1107159,0.500857 -1.6080168,3.421648 0.5641238,4.718606 z"
     id="path87"
     inkscape:connector-curvature="0"
     style="fill:#00b5a9;stroke-width:0.52721858" />
  <path
     d="m 7.0704729,19.719958 c 0,0 -0.4112305,2.31449 0.4744967,3.100045 0.8857271,0.780284 2.2828563,0.817189 3.1211334,0.07908 0.838278,-0.738106 0.801373,-1.97707 -0.08436,-2.757353 C 9.6960213,19.356177 7.0704729,19.719958 7.0704729,19.719958 Z"
     id="path89"
     inkscape:connector-curvature="0"
     style="fill:#deb366;stroke-width:0.52721858" />
  <path
     d="m 7.6873186,20.262993 c 0,0 -0.16871,1.887443 0.4586801,2.441022 0.6273901,0.55358 1.6554663,0.548307 2.2934003,-0.01054 0.637935,-0.564124 0.643207,-1.47094 0.01582,-2.02452 C 9.8225537,20.1101 7.6873186,20.262993 7.6873186,20.262993 Z"
     id="path91"
     inkscape:connector-curvature="0"
     style="fill:#0084ff;stroke-width:0.52721858" />
  <path
     d="m 8.3990636,20.890383 c 0,0 -0.2214318,1.22842 0.1792543,1.581656 0.4006861,0.353236 1.0807981,0.321603 1.5289341,-0.07381 0.442863,-0.395414 0.485041,-0.996443 0.08435,-1.349679 C 9.7909206,20.695312 8.3990636,20.890383 8.3990636,20.890383 Z"
     id="path93"
     inkscape:connector-curvature="0"
     style="fill:#2b1fa6;stroke-width:0.52721858" />
  <path
     d="m 14.230101,29.378602 c 1.381312,0.822461 3.274027,1.196786 4.544624,0.137077 0.02109,-0.01582 0.04218,-0.03163 0.06327,-0.05272 1.217875,-1.075526 0.695929,-2.778442 -0.221432,-3.964684 -1.397129,-1.808359 -4.423363,-0.321603 -4.908405,-0.463952 0.105444,0.463952 -1.476212,3.152767 0.521947,4.344281 z"
     id="path95"
     inkscape:connector-curvature="0"
     style="fill:#008777;stroke-width:0.52721858" />
  <path
     d="m 15.068378,26.246924 c 0,0 -0.379597,2.129963 0.437592,2.852252 0.811916,0.717017 2.09833,0.748651 2.868069,0.07381 0.769739,-0.680112 0.732834,-1.818904 -0.07908,-2.535921 -0.811917,-0.727562 -3.226578,-0.390142 -3.226578,-0.390142 z"
     id="path97"
     inkscape:connector-curvature="0"
     style="fill:#deb366;stroke-width:0.52721858" />
  <path
     d="m 15.637774,26.742509 c 0,0 -0.158165,1.734549 0.421775,2.245951 0.579941,0.511402 1.523662,0.50613 2.108874,-0.01054 0.585213,-0.516674 0.590485,-1.34968 0.01055,-1.861082 -0.579941,-0.511402 -2.541194,-0.374325 -2.541194,-0.374325 z"
     id="path99"
     inkscape:connector-curvature="0"
     style="fill:#0084ff;stroke-width:0.52721858" />
  <path
     d="m 16.291525,27.32245 c 0,0 -0.205615,1.128247 0.163438,1.455123 0.369053,0.326875 0.996443,0.295242 1.407674,-0.06854 0.41123,-0.363781 0.442863,-0.917361 0.07908,-1.244236 -0.369053,-0.321604 -1.650194,-0.142349 -1.650194,-0.142349 z"
     id="path101"
     inkscape:connector-curvature="0"
     style="fill:#2b1fa6;stroke-width:0.52721858" />
  <path
     d="m 20.973226,33.501451 c 0.948994,0.564124 2.251223,0.822461 3.121134,0.0949 0.01582,-0.01054 0.02636,-0.02109 0.04218,-0.03691 0.838277,-0.738106 0.479768,-1.908531 -0.152894,-2.720447 -0.959538,-1.238964 -3.036779,-0.221432 -3.374199,-0.316332 0.07908,0.311059 -1.006987,2.161596 0.363781,2.978785 z"
     id="path103"
     inkscape:connector-curvature="0"
     style="fill:#00717d;stroke-width:0.52721858" />
  <path
     d="m 21.547894,31.3504 c 0,0 -0.258337,1.460395 0.300515,1.95598 0.558852,0.495586 1.439307,0.516675 1.971797,0.04745 0.527219,-0.469224 0.50613,-1.249508 -0.05272,-1.739821 C 23.208634,31.118423 21.547895,31.3504 21.547894,31.3504 Z"
     id="path105"
     inkscape:connector-curvature="0"
     style="fill:#deb366;stroke-width:0.52721858" />
  <path
     d="m 21.938036,31.693092 c 0,0 -0.105444,1.191514 0.28997,1.54475 0.395414,0.353236 1.043893,0.347964 1.449851,-0.0053 0.400687,-0.353237 0.405959,-0.927905 0.01055,-1.281141 -0.400686,-0.353237 -1.750366,-0.258337 -1.750366,-0.258337 z"
     id="path107"
     inkscape:connector-curvature="0"
     style="fill:#0084ff;stroke-width:0.52721858" />
  <path
     d="m 22.386172,32.088505 c 0,0 -0.142349,0.775012 0.110716,1.001716 0.253065,0.221432 0.685384,0.200343 0.96481,-0.04745 0.279426,-0.247793 0.305787,-0.632662 0.05272,-0.854094 -0.247791,-0.221432 -1.128246,-0.100172 -1.128246,-0.100172 z"
     id="path109"
     inkscape:connector-curvature="0"
     style="fill:#2b1fa6;stroke-width:0.52721858" />
  <path
     d="m 3.2428659,32.473375 c 1.7819987,0.543035 3.9805003,0.45868 5.0191209,-1.028076 0.015817,-0.02636 0.036905,-0.04745 0.052722,-0.07381 C 9.2900631,29.879461 8.1565432,28.150184 6.759414,27.095747 4.634723,25.482458 1.8141037,27.886575 1.2341633,27.860214 1.5030447,28.33471 0.66476722,31.68782 3.242866,32.473376 Z"
     id="path111"
     inkscape:connector-curvature="0"
     style="fill:#00b5a9;stroke-width:0.52721858" />
  <path
     d="m 3.1216056,28.830295 c 0,0 0.2952424,2.425205 1.4234901,3.005146 1.128248,0.574668 2.5464659,0.279425 3.1633116,-0.664296 0.6168457,-0.943721 0.2003431,-2.177412 -0.9279047,-2.752081 -1.1282477,-0.57994 -3.658897,0.411231 -3.658897,0.411231 z"
     id="path113"
     inkscape:connector-curvature="0"
     style="fill:#deb366;stroke-width:0.52721858" />
  <path
     d="m 3.9071613,29.225709 c 0,0 0.4059583,1.940164 1.2073305,2.346122 0.8013724,0.411231 1.8347208,0.158166 2.3039453,-0.558851 0.4692245,-0.717018 0.2003431,-1.634378 -0.6063013,-2.040336 -0.8013723,-0.405958 -2.9049745,0.253065 -2.9049745,0.253065 z"
     id="path115"
     inkscape:connector-curvature="0"
     style="fill:#0084ff;stroke-width:0.52721858" />
  <path
     d="m 4.8139772,29.689661 c 0,0 0.1528934,1.291686 0.6590234,1.550023 0.511402,0.258337 1.1862418,0.06327 1.5183895,-0.437592 C 7.3182656,30.301235 7.1706444,29.684389 6.6645146,29.42078 6.1583847,29.162442 4.8139772,29.689661 4.8139772,29.689661 Z"
     id="path117"
     inkscape:connector-curvature="0"
     style="fill:#2b1fa6;stroke-width:0.52721858" />
  <path
     d="m 11.108967,36.195538 c 1.63965,0.500858 3.658897,0.421775 4.618435,-0.943721 0.01582,-0.02109 0.03163,-0.04218 0.04745,-0.06854 0.896272,-1.37604 -0.147621,-2.962968 -1.428762,-3.93305 -1.955981,-1.486756 -4.544624,0.727562 -5.0823869,0.706473 0.2425205,0.432319 -0.5272186,3.516548 1.8452649,4.238837 z"
     id="path119"
     inkscape:connector-curvature="0"
     style="fill:#008777;stroke-width:0.52721858" />
  <path
     d="m 10.998251,32.8477 c 0,0 0.268882,2.235407 1.307502,2.762625 1.038621,0.527219 2.34085,0.258338 2.910247,-0.611573 0.569396,-0.869911 0.184526,-2.003431 -0.854095,-2.530649 -1.03862,-0.537763 -3.363654,0.379597 -3.363654,0.379597 z"
     id="path121"
     inkscape:connector-curvature="0"
     style="fill:#deb366;stroke-width:0.52721858" />
  <path
     d="m 11.715268,33.211481 c 0,0 0.369053,1.781999 1.107159,2.161596 0.738106,0.374325 1.6871,0.147621 2.119419,-0.511402 0.432319,-0.659023 0.184526,-1.502573 -0.55358,-1.876898 -0.738106,-0.379597 -2.672998,0.226704 -2.672998,0.226704 z"
     id="path123"
     inkscape:connector-curvature="0"
     style="fill:#0084ff;stroke-width:0.52721858" />
  <path
     d="m 12.553546,33.638528 c 0,0 0.137077,1.186242 0.606301,1.42349 0.469225,0.237249 1.091343,0.05799 1.391857,-0.400686 0.300515,-0.463952 0.16871,-1.028076 -0.300514,-1.270597 -0.463953,-0.237248 -1.697644,0.247793 -1.697644,0.247793 z"
     id="path125"
     inkscape:connector-curvature="0"
     style="fill:#2b1fa6;stroke-width:0.52721858" />
  <path
     d="m 19.692085,38.889625 c 1.096615,0.332148 2.451566,0.284698 3.094773,-0.632662 0.01054,-0.01582 0.02109,-0.03163 0.03163,-0.04218 0.601029,-0.922632 -0.100171,-1.982342 -0.959538,-2.636093 -1.312774,-0.996443 -3.047323,0.485041 -3.405832,0.474497 0.163438,0.284698 -0.353236,2.351395 1.238964,2.836436 z"
     id="path127"
     inkscape:connector-curvature="0"
     style="fill:#00717d;stroke-width:0.52721858" />
  <path
     d="m 19.618275,36.643674 c 0,0 0.179254,1.497301 0.875182,1.850537 0.695929,0.353236 1.571112,0.173982 1.950709,-0.41123 0.379597,-0.579941 0.126532,-1.344408 -0.574668,-1.697644 -0.695929,-0.353237 -2.251223,0.258337 -2.251223,0.258337 z"
     id="path129"
     inkscape:connector-curvature="0"
     style="fill:#deb366;stroke-width:0.52721858" />
  <path
     d="m 20.098043,36.886194 c 0,0 0.247793,1.196787 0.743379,1.449851 0.495585,0.253065 1.128247,0.100172 1.418218,-0.342692 0.28997,-0.442863 0.12126,-1.006987 -0.374326,-1.260052 -0.490313,-0.253065 -1.787271,0.152893 -1.787271,0.152893 z"
     id="path131"
     inkscape:connector-curvature="0"
     style="fill:#0084ff;stroke-width:0.52721858" />
  <path
     d="m 20.656895,37.176165 c 0,0 0.0949,0.7961 0.405958,0.954265 0.316332,0.158166 0.732834,0.03691 0.933177,-0.268881 0.200343,-0.311059 0.110716,-0.690657 -0.200343,-0.848822 -0.311059,-0.163438 -1.138792,0.163438 -1.138792,0.163438 z"
     id="path133"
     inkscape:connector-curvature="0"
     style="fill:#2b1fa6;stroke-width:0.52721858" />
  <path
     d="m 3.9018891,41.694428 c 1.5763837,0.05272 3.316205,-0.479769 3.743252,-1.897987 0.00527,-0.02109 0.015817,-0.04745 0.021089,-0.06854 C 8.0405553,38.320228 6.6592427,37.181436 5.2462967,36.633128 3.1005172,35.794851 1.5030449,38.3255 1.0285482,38.425672 c 0.3426921,0.326875 0.5904848,3.189672 2.8733412,3.268755 z"
     id="path135"
     inkscape:connector-curvature="0"
     style="fill:#00b5a9;stroke-width:0.52721858" />
  <path
     d="m 2.8052745,38.799998 c 0,0 0.9015437,1.88217 1.961253,2.103602 1.0649817,0.221432 2.1141467,-0.321603 2.351395,-1.207331 C 7.3551709,38.80527 6.6856033,37.908998 5.6206218,37.687567 4.5609123,37.466135 2.8052745,38.799998 2.8052745,38.799998 Z"
     id="path137"
     inkscape:connector-curvature="0"
     style="fill:#deb366;stroke-width:0.52721858" />
  <path
     d="m 3.5433805,38.952891 c 0,0 0.854094,1.465668 1.6080166,1.623833 C 5.9053198,40.73489 6.6645146,40.313115 6.8437689,39.638275 7.0230232,38.963436 6.5537987,38.288596 5.7998761,38.13043 5.0459534,37.972265 3.5433805,38.952891 3.5433805,38.952891 Z"
     id="path139"
     inkscape:connector-curvature="0"
     style="fill:#0084ff;stroke-width:0.52721858" />
  <path
     d="m 4.4027467,39.126873 c 0,0 0.4744967,1.001716 0.9542658,1.101887 0.4797689,0.100172 0.9700822,-0.200343 1.0966146,-0.67484 C 6.5801596,39.079424 6.2901894,38.615471 5.8104205,38.520572 5.3306516,38.4204 4.4027467,39.126873 4.4027467,39.126873 Z"
     id="path141"
     inkscape:connector-curvature="0"
     style="fill:#2b1fa6;stroke-width:0.52721858" />
  <path
     d="m 11.224955,43.00193 c 1.449851,0.04745 3.047323,-0.442864 3.442737,-1.745094 0.0053,-0.02109 0.01582,-0.04218 0.02109,-0.06327 0.342692,-1.291685 -0.927905,-2.34085 -2.224862,-2.84698 -1.97707,-0.775011 -3.4480097,1.555295 -3.8803289,1.650194 0.311059,0.295242 0.5430351,2.931335 2.6413649,3.005146 z"
     id="path143"
     inkscape:connector-curvature="0"
     style="fill:#008777;stroke-width:0.52721858" />
  <path
     d="m 10.217968,40.334204 c 0,0 0.827733,1.734549 1.808359,1.934892 0.975355,0.200343 1.945437,-0.295242 2.166869,-1.112431 0.216159,-0.817189 -0.400687,-1.644922 -1.376041,-1.850537 -0.985899,-0.200343 -2.599187,1.028076 -2.599187,1.028076 z"
     id="path145"
     inkscape:connector-curvature="0"
     style="fill:#deb366;stroke-width:0.52721858" />
  <path
     d="m 10.89808,40.476553 c 0,0 0.785555,1.349679 1.481484,1.492028 0.695928,0.142349 1.391857,-0.24252 1.555294,-0.864638 0.163438,-0.622118 -0.263609,-1.244236 -0.959537,-1.386585 -0.695929,-0.142349 -2.077241,0.759195 -2.077241,0.759195 z"
     id="path147"
     inkscape:connector-curvature="0"
     style="fill:#0084ff;stroke-width:0.52721858" />
  <path
     d="m 11.683635,40.639991 c 0,0 0.437592,0.922632 0.875183,1.012259 0.442864,0.08963 0.890999,-0.184526 1.006987,-0.622118 0.115989,-0.432319 -0.147621,-0.859366 -0.590484,-0.954265 -0.437592,-0.08963 -1.291686,0.564124 -1.291686,0.564124 z"
     id="path149"
     inkscape:connector-curvature="0"
     style="fill:#2b1fa6;stroke-width:0.52721858" />
  <path
     d="m 19.9926,43.982556 c 1.154608,0.04218 2.430477,-0.353236 2.741536,-1.386585 0.0053,-0.01582 0.01055,-0.03163 0.01582,-0.05272 0.274153,-1.028077 -0.738106,-1.866354 -1.771455,-2.26704 -1.571111,-0.616846 -2.741536,1.238963 -3.0895,1.312774 0.247792,0.237248 0.427047,2.34085 2.103602,2.393572 z"
     id="path151"
     inkscape:connector-curvature="0"
     style="fill:#00717d;stroke-width:0.52721858" />
  <path
     d="m 19.191227,41.863138 c 0,0 0.659024,1.381312 1.439307,1.539478 0.780284,0.163438 1.550023,-0.237249 1.724005,-0.885727 0.173982,-0.653751 -0.316331,-1.307502 -1.096615,-1.47094 -0.785555,-0.163438 -2.066697,0.817189 -2.066697,0.817189 z"
     id="path153"
     inkscape:connector-curvature="0"
     style="fill:#deb366;stroke-width:0.52721858" />
  <path
     d="m 19.72899,41.973854 c 0,0 0.627391,1.075525 1.18097,1.191513 0.553579,0.115989 1.107159,-0.19507 1.238964,-0.685384 0.131804,-0.495585 -0.210888,-0.991171 -0.764467,-1.101886 -0.55358,-0.121261 -1.655467,0.595757 -1.655467,0.595757 z"
     id="path155"
     inkscape:connector-curvature="0"
     style="fill:#0084ff;stroke-width:0.52721858" />
  <path
     d="m 20.356381,42.105658 c 0,0 0.347964,0.732834 0.7012,0.806645 0.353237,0.07381 0.711745,-0.147622 0.801372,-0.495586 0.08963,-0.347964 -0.115988,-0.685384 -0.469224,-0.759195 -0.353237,-0.07381 -1.033348,0.448136 -1.033348,0.448136 z"
     id="path157"
     inkscape:connector-curvature="0"
     style="fill:#2b1fa6;stroke-width:0.52721858" />
  <path
     d="m 6.2163788,50.272274 c 1.4024014,-0.316331 2.7731696,-1.186242 2.7309921,-2.525377 v -0.06327 C 8.863016,46.360312 7.3129934,45.674928 5.910592,45.516762 3.7753566,45.26897 3.1110613,47.862885 2.7261917,48.063228 c 0.4006861,0.200343 1.4603954,2.662454 3.4901871,2.209046 z"
     id="path159"
     inkscape:connector-curvature="0"
     style="fill:#00b5a9;stroke-width:0.52721858" />
  <path
     d="m 4.4027467,47.978873 c 0,0 1.3444076,1.449851 2.3461228,1.397129 1.0017153,-0.05272 1.7661822,-0.769739 1.7134604,-1.602744 -0.052722,-0.838278 -0.906816,-1.47094 -1.9085312,-1.42349 -1.0017153,0.04745 -2.151052,1.629105 -2.151052,1.629105 z"
     id="path161"
     inkscape:connector-curvature="0"
     style="fill:#deb366;stroke-width:0.52721858" />
  <path
     d="m 5.093403,47.941968 c 0,0 1.186242,1.096614 1.8927149,1.059709 0.711745,-0.03691 1.2547802,-0.57994 1.2126027,-1.212603 C 8.1565426,47.15114 7.5502417,46.666099 6.8384967,46.703004 6.1320238,46.734634 5.093403,47.941968 5.093403,47.941968 Z"
     id="path163"
     inkscape:connector-curvature="0"
     style="fill:#0084ff;stroke-width:0.52721858" />
  <path
     d="m 5.9000477,47.89979 c 0,0 0.711745,0.769739 1.165153,0.748651 0.4534079,-0.02109 0.7908278,-0.400687 0.7644669,-0.84355 C 7.8033066,47.362027 7.4131649,47.019335 6.959757,47.040424 6.5116212,47.061514 5.9000477,47.89979 5.9000477,47.89979 Z"
     id="path165"
     inkscape:connector-curvature="0"
     style="fill:#2b1fa6;stroke-width:0.52721858" />
  <path
     d="m 13.043859,49.739783 c 1.291686,-0.28997 2.551738,-1.091342 2.514833,-2.325034 v -0.05799 c -0.07908,-1.217875 -1.507845,-1.845265 -2.794259,-1.992886 -1.966525,-0.226704 -2.572826,2.156324 -2.9260627,2.34085 0.3585087,0.184527 1.3338627,2.451567 3.2054887,2.035064 z"
     id="path167"
     inkscape:connector-curvature="0"
     style="fill:#008777;stroke-width:0.52721858" />
  <path
     d="m 11.372576,47.625636 c 0,0 1.238964,1.333863 2.156324,1.286414 0.91736,-0.04745 1.623833,-0.706473 1.576384,-1.476212 -0.04745,-0.769739 -0.838278,-1.354952 -1.755638,-1.307502 -0.91736,0.04745 -1.97707,1.4973 -1.97707,1.4973 z"
     id="path169"
     inkscape:connector-curvature="0"
     style="fill:#deb366;stroke-width:0.52721858" />
  <path
     d="m 12.010511,47.594003 c 0,0 1.091342,1.006988 1.739821,0.975355 0.653751,-0.03163 1.154609,-0.532491 1.117703,-1.117704 -0.03691,-0.585212 -0.595757,-1.033348 -1.249508,-0.996443 -0.653751,0.02636 -1.608016,1.138792 -1.608016,1.138792 z"
     id="path171"
     inkscape:connector-curvature="0"
     style="fill:#0084ff;stroke-width:0.52721858" />
  <path
     d="m 12.753889,47.557098 c 0,0 0.653751,0.711745 1.070254,0.690656 0.416502,-0.02109 0.727561,-0.369053 0.7012,-0.775011 -0.02636,-0.41123 -0.384869,-0.722289 -0.801372,-0.701201 -0.41123,0.01582 -0.970082,0.785556 -0.970082,0.785556 z"
     id="path173"
     inkscape:connector-curvature="0"
     style="fill:#2b1fa6;stroke-width:0.52721858" />
  <path
     d="m 21.500445,49.20202 c 1.175697,-0.263609 2.330306,-0.996443 2.293401,-2.124691 v -0.05272 c -0.07381,-1.112431 -1.376041,-1.687099 -2.551738,-1.818904 -1.792543,-0.205615 -2.351395,1.971798 -2.672998,2.140508 0.337419,0.16871 1.228419,2.240679 2.931335,1.855809 z"
     id="path175"
     inkscape:connector-curvature="0"
     style="fill:#00717d;stroke-width:0.52721858" />
  <path
     d="m 19.976783,47.277672 c 0,0 1.128248,1.217875 1.971798,1.175698 0.838277,-0.04218 1.481484,-0.643207 1.439306,-1.344408 -0.04745,-0.7012 -0.764467,-1.238963 -1.602744,-1.196786 -0.84355,0.03691 -1.80836,1.365496 -1.80836,1.365496 z"
     id="path177"
     inkscape:connector-curvature="0"
     style="fill:#deb366;stroke-width:0.52721858" />
  <path
     d="m 20.556724,47.246039 c 0,0 0.996443,0.91736 1.5922,0.891 0.595757,-0.03163 1.054437,-0.485042 1.017531,-1.017532 -0.03691,-0.532491 -0.548307,-0.943722 -1.144064,-0.912088 -0.595757,0.02636 -1.465667,1.03862 -1.465667,1.03862 z"
     id="path179"
     inkscape:connector-curvature="0"
     style="fill:#0084ff;stroke-width:0.52721858" />
  <path
     d="m 21.236835,47.209134 c 0,0 0.595757,0.648479 0.975355,0.62739 0.379597,-0.02109 0.664295,-0.33742 0.643206,-0.711745 -0.02636,-0.374325 -0.353236,-0.659023 -0.727561,-0.643207 -0.379597,0.02636 -0.891,0.727562 -0.891,0.727562 z"
     id="path181"
     inkscape:connector-curvature="0"
     style="fill:#2b1fa6;stroke-width:0.52721858" />
  <path
     d="m 11.493836,56.851965 c 1.165154,-0.61158 2.135236,-1.70292 1.6871,-2.87862 -0.0053,-0.0211 -0.01582,-0.0369 -0.02109,-0.058 -0.479769,-1.14934 -2.087785,-1.38659 -3.4005595,-1.19679 -1.9981583,0.28997 -1.8030875,2.73099 -2.0877855,2.99988 0.4270471,0.0896 2.1352352,2.01925 3.822334,1.13352 z"
     id="path183"
     inkscape:connector-curvature="0"
     style="fill:#00b5a9;stroke-width:0.52721858" />
  <path
     d="m 9.1582584,55.254485 c 0,0 1.6554666,0.95954 2.5411936,0.68012 0.885727,-0.27943 1.354951,-1.09662 1.054437,-1.81891 -0.305787,-0.72756 -1.270597,-1.08607 -2.156324,-0.80664 -0.8857272,0.27942 -1.4393066,1.94543 -1.4393066,1.94543 z"
     id="path185"
     inkscape:connector-curvature="0"
     style="fill:#deb366;stroke-width:0.52721858" />
  <path
     d="m 9.7698319,55.059415 c 0,0 1.4024011,0.68539 2.0297911,0.48504 0.62739,-0.20034 0.948994,-0.80664 0.72229,-1.36022 -0.231976,-0.55358 -0.927905,-0.83828 -1.555295,-0.63793 -0.632662,0.20561 -1.1967861,1.51311 -1.1967861,1.51311 z"
     id="path187"
     inkscape:connector-curvature="0"
     style="fill:#0084ff;stroke-width:0.52721858" />
  <path
     d="m 10.486849,54.832715 c 0,0 0.875183,0.5114 1.275869,0.38487 0.400686,-0.12653 0.590485,-0.54304 0.432319,-0.92791 -0.163438,-0.38487 -0.616846,-0.59575 -1.017532,-0.46922 -0.400686,0.1318 -0.690656,1.01226 -0.690656,1.01226 z"
     id="path189"
     inkscape:connector-curvature="0"
     style="fill:#2b1fa6;stroke-width:0.52721858" />
  <path
     d="m 17.477767,54.769445 c 1.075526,-0.55885 1.966525,-1.56584 1.555295,-2.646634 -0.0053,-0.01582 -0.01054,-0.03691 -0.02109,-0.05272 -0.442863,-1.054437 -1.919075,-1.275869 -3.126406,-1.101887 -1.839993,0.263609 -1.655466,2.514831 -1.919075,2.762621 0.384869,0.0791 1.95598,1.85054 3.511276,1.03862 z"
     id="path191"
     inkscape:connector-curvature="0"
     style="fill:#008777;stroke-width:0.52721858" />
  <path
     d="m 15.326715,53.298505 c 0,0 1.523662,0.88573 2.335579,0.62739 0.811916,-0.25833 1.249508,-1.00698 0.970082,-1.676552 -0.279426,-0.669567 -1.165153,-1.001715 -1.982342,-0.743378 -0.811917,0.258337 -1.323319,1.79254 -1.323319,1.79254 z"
     id="path193"
     inkscape:connector-curvature="0"
     style="fill:#deb366;stroke-width:0.52721858" />
  <path
     d="m 15.890839,53.119255 c 0,0 1.286414,0.63266 1.866354,0.44813 0.57994,-0.18452 0.875183,-0.74337 0.664295,-1.249503 -0.210887,-0.50613 -0.854094,-0.769739 -1.434034,-0.585213 -0.574668,0.179254 -1.096615,1.386586 -1.096615,1.386586 z"
     id="path195"
     inkscape:connector-curvature="0"
     style="fill:#0084ff;stroke-width:0.52721858" />
  <path
     d="m 16.549862,52.908365 c 0,0 0.806645,0.46923 1.175698,0.35324 0.369053,-0.11599 0.543035,-0.49559 0.395414,-0.8541 -0.147621,-0.353233 -0.569396,-0.548303 -0.933177,-0.432315 -0.369053,0.12126 -0.637935,0.933175 -0.637935,0.933175 z"
     id="path197"
     inkscape:connector-curvature="0"
     style="fill:#2b1fa6;stroke-width:0.52721858" />
  <path
     d="M 24.995904,52.681665 C 25.97653,52.17026 26.788447,51.2529 26.414122,50.267001 l -0.01582,-0.04745 c -0.405958,-0.96481 -1.750365,-1.165153 -2.852252,-1.006988 -1.676555,0.242521 -1.513117,2.293401 -1.755638,2.520105 0.347964,0.07381 1.787271,1.692377 3.205489,0.948997 z"
     id="path199"
     inkscape:connector-curvature="0"
     style="fill:#00717d;stroke-width:0.52721858" />
  <path
     d="m 23.034651,51.342527 c 0,0 1.391857,0.806645 2.135235,0.569396 0.743378,-0.237248 1.138792,-0.922632 0.885727,-1.528933 -0.253065,-0.611574 -1.064981,-0.912089 -1.80836,-0.67484 -0.74865,0.231976 -1.212602,1.634377 -1.212602,1.634377 z"
     id="path201"
     inkscape:connector-curvature="0"
     style="fill:#deb366;stroke-width:0.52721858" />
  <path
     d="m 23.546053,51.173817 c 0,0 1.175697,0.574669 1.702916,0.411231 0.527218,-0.16871 0.7961,-0.680112 0.606301,-1.138792 -0.195071,-0.463953 -0.780283,-0.701201 -1.307502,-0.532491 -0.527218,0.163438 -1.001715,1.260052 -1.001715,1.260052 z"
     id="path203"
     inkscape:connector-curvature="0"
     style="fill:#0084ff;stroke-width:0.52721858" />
  <path
     d="m 24.147082,50.984019 c 0,0 0.738106,0.432319 1.070254,0.321603 0.33742,-0.105444 0.495585,-0.453408 0.36378,-0.780283 -0.137076,-0.321604 -0.516674,-0.500858 -0.854094,-0.395414 -0.33742,0.115988 -0.57994,0.854094 -0.57994,0.854094 z"
     id="path205"
     inkscape:connector-curvature="0"
     style="fill:#2b1fa6;stroke-width:0.52721858" />
  <path
     d="m 45.256913,11.031396 c -1.028076,1.502573 -2.878613,2.752081 -4.882044,2.177413 -0.03163,-0.01055 -0.06327,-0.01582 -0.100171,-0.02636 -1.961253,-0.616846 -2.377756,-2.683543 -2.071969,-4.3706416 0.469224,-2.572827 4.634251,-2.325034 5.087659,-2.694087 0.158165,0.543035 3.453281,2.741537 1.966525,4.9136756 z"
     id="path207"
     inkscape:connector-curvature="0"
     style="fill:#00b5a9;stroke-width:0.52721858" />
  <path
     d="m 42.510104,8.0315234 c 0,0 1.655467,2.1299626 1.186242,3.2687546 -0.469224,1.138792 -1.850537,1.745093 -3.089501,1.360224 -1.238963,-0.390142 -1.861081,-1.629106 -1.391857,-2.7678976 0.469225,-1.144064 3.295116,-1.861081 3.295116,-1.861081 z"
     id="path209"
     inkscape:connector-curvature="0"
     style="fill:#deb366;stroke-width:0.52721858" />
  <path
     d="m 42.183229,8.8223504 c 0,0 1.18097,1.7978156 0.848822,2.6097316 -0.332148,0.806645 -1.365496,1.223147 -2.303945,0.927905 -0.938449,-0.295242 -1.434035,-1.191514 -1.101887,-2.003431 0.332148,-0.8119156 2.55701,-1.5342056 2.55701,-1.5342056 z"
     id="path211"
     inkscape:connector-curvature="0"
     style="fill:#0084ff;stroke-width:0.52721858" />
  <path
     d="m 41.808904,9.7397114 c 0,0 0.880455,1.1282466 0.669567,1.6396486 -0.210887,0.511402 -0.91736,0.764467 -1.576383,0.55358 -0.659023,-0.205615 -1.017532,-0.790828 -0.806645,-1.307502 0.210888,-0.511402 1.713461,-0.8857266 1.713461,-0.8857266 z"
     id="path213"
     inkscape:connector-curvature="0"
     style="fill:#2b1fa6;stroke-width:0.52721858" />
  <path
     d="m 41.640194,18.786781 c -0.906816,1.191514 -2.477927,2.14578 -4.085944,1.602745 -0.02636,-0.01055 -0.05272,-0.01582 -0.07908,-0.02636 -1.571111,-0.574669 -1.818904,-2.277584 -1.492028,-3.643081 0.500857,-2.082513 3.896145,-1.729276 4.281014,-2.013974 0.100172,0.448135 2.688815,2.356667 1.376041,4.080671 z"
     id="path215"
     inkscape:connector-curvature="0"
     style="fill:#008777;stroke-width:0.52721858" />
  <path
     d="m 39.536592,16.240316 c 0,0 1.25478,1.797815 0.817189,2.709903 -0.437592,0.912088 -1.592201,1.360224 -2.588644,0.996443 -0.991171,-0.363781 -1.444578,-1.397129 -1.006987,-2.314489 0.437591,-0.912089 2.778442,-1.391857 2.778442,-1.391857 z"
     id="path217"
     inkscape:connector-curvature="0"
     style="fill:#deb366;stroke-width:0.52721858" />
  <path
     d="m 39.236077,16.867706 c 0,0 0.885727,1.513117 0.574668,2.161596 -0.311059,0.648479 -1.170425,0.954265 -1.924347,0.674839 -0.753923,-0.274153 -1.117704,-1.028076 -0.806645,-1.676555 0.305787,-0.643206 2.156324,-1.15988 2.156324,-1.15988 z"
     id="path219"
     inkscape:connector-curvature="0"
     style="fill:#0084ff;stroke-width:0.52721858" />
  <path
     d="m 38.882841,17.605812 c 0,0 0.669567,0.954265 0.469224,1.365496 -0.195071,0.41123 -0.785555,0.590484 -1.312774,0.395414 -0.527219,-0.195071 -0.7961,-0.685385 -0.601029,-1.096615 0.200343,-0.41123 1.444579,-0.664295 1.444579,-0.664295 z"
     id="path221"
     inkscape:connector-curvature="0"
     style="fill:#2b1fa6;stroke-width:0.52721858" />
  <path
     d="m 46.23754,23.80063 c -1.428763,0.738106 -3.347838,1.001715 -4.560441,-0.126533 -0.02109,-0.01582 -0.04218,-0.03691 -0.05799,-0.05272 -1.154609,-1.138792 -0.532491,-2.804802 0.453408,-3.927778 1.507845,-1.718732 4.444453,-0.06854 4.940038,-0.179254 -0.126532,0.448136 1.296958,3.216033 -0.775011,4.286287 z"
     id="path223"
     inkscape:connector-curvature="0"
     style="fill:#008777;stroke-width:0.52721858" />
  <path
     d="m 45.583789,20.637318 c 0,0 0.253065,2.140508 -0.606302,2.810075 -0.859366,0.669568 -2.145779,0.62739 -2.878613,-0.0949 -0.732834,-0.722289 -0.62739,-1.850537 0.231976,-2.520105 0.859366,-0.664295 3.252939,-0.195071 3.252939,-0.19507 z"
     id="path225"
     inkscape:connector-curvature="0"
     style="fill:#deb366;stroke-width:0.52721858" />
  <path
     d="m 44.988032,21.101271 c 0,0 0.05272,1.734549 -0.55358,2.209045 -0.611573,0.474497 -1.555295,0.416503 -2.108874,-0.131804 -0.55358,-0.548307 -0.511402,-1.376041 0.100171,-1.85581 0.606302,-0.474496 2.562283,-0.221431 2.562283,-0.221431 z"
     id="path227"
     inkscape:connector-curvature="0"
     style="fill:#0084ff;stroke-width:0.52721858" />
  <path
     d="m 44.297375,21.639034 c 0,0 0.137077,1.138792 -0.247792,1.439306 -0.38487,0.300515 -1.01226,0.237249 -1.402402,-0.147621 -0.390141,-0.384869 -0.390141,-0.938449 -0.0053,-1.238964 0.38487,-0.305786 1.655466,-0.05272 1.655466,-0.05272 z"
     id="path229"
     inkscape:connector-curvature="0"
     style="fill:#2b1fa6;stroke-width:0.52721858" />
  <path
     d="m 39.299343,28.060556 c -1.091342,0.50613 -2.530649,0.648479 -3.384743,-0.221432 l -0.04218,-0.04218 c -0.817189,-0.880455 -0.28997,-2.098329 0.485041,-2.910246 1.186242,-1.233691 3.310932,0.07908 3.685258,0.01054 -0.121261,0.326876 0.838277,2.430478 -0.743379,3.163312 z"
     id="path231"
     inkscape:connector-curvature="0"
     style="fill:#00717d;stroke-width:0.52721858" />
  <path
     d="m 38.93029,25.688072 c 0,0 0.105444,1.597472 -0.553579,2.071969 -0.664295,0.474497 -1.618561,0.405958 -2.135235,-0.152893 -0.516674,-0.558852 -0.400686,-1.391857 0.263609,-1.866354 0.659023,-0.474497 2.425205,-0.05272 2.425205,-0.05272 z"
     id="path233"
     inkscape:connector-curvature="0"
     style="fill:#deb366;stroke-width:0.52721858" />
  <path
     d="m 38.47161,26.014948 c 0,0 -0.02636,1.291685 -0.495585,1.629105 -0.469225,0.33742 -1.170425,0.263609 -1.565839,-0.158166 -0.395414,-0.421774 -0.326876,-1.03862 0.142349,-1.37604 0.469224,-0.33742 1.919075,-0.0949 1.919075,-0.0949 z"
     id="path235"
     inkscape:connector-curvature="0"
     style="fill:#0084ff;stroke-width:0.52721858" />
  <path
     d="m 37.933847,26.399817 c 0,0 0.05799,0.848822 -0.237248,1.064982 -0.300515,0.210887 -0.764467,0.147621 -1.038621,-0.147621 -0.274153,-0.295243 -0.253064,-0.711746 0.04218,-0.922633 0.300514,-0.221432 1.233691,0.0053 1.233691,0.0053 z"
     id="path237"
     inkscape:connector-curvature="0"
     style="fill:#2b1fa6;stroke-width:0.52721858" />
  <path
     d="m 53.623869,16.024156 c -1.254777,1.265324 -3.231847,2.177413 -5.003301,1.339135 -0.02636,-0.01582 -0.05799,-0.02636 -0.08436,-0.04218 -1.718733,-0.869911 -1.708189,-2.883886 -1.091343,-4.428636 0.943721,-2.356667 4.802961,-1.513118 5.298544,-1.792543 0.03163,0.53249 2.694087,3.0895 0.880455,4.924221 z"
     id="path239"
     inkscape:connector-curvature="0"
     style="fill:#00b5a9;stroke-width:0.52721858" />
  <path
     d="m 51.630986,12.787034 c 0,0 1.138789,2.251223 0.474496,3.258211 -0.664295,1.006987 -2.077241,1.37604 -3.163311,0.827733 -1.08607,-0.548307 -1.428762,-1.813632 -0.764467,-2.820619 0.659023,-1.006988 3.453282,-1.265325 3.453282,-1.265325 z"
     id="path241"
     inkscape:connector-curvature="0"
     style="fill:#deb366;stroke-width:0.52721858" />
  <path
     d="m 51.172305,13.482962 c 0,0 0.759195,1.871626 0.289971,2.588644 -0.469225,0.717017 -1.51839,0.954265 -2.346123,0.537763 -0.822461,-0.416503 -1.112431,-1.339136 -0.643207,-2.050881 0.469225,-0.717017 2.699359,-1.075526 2.699359,-1.075526 z"
     id="path243"
     inkscape:connector-curvature="0"
     style="fill:#0084ff;stroke-width:0.52721858" />
  <path
     d="m 50.639815,14.294879 c 0,0 0.606301,1.196786 0.311059,1.650194 -0.300515,0.453408 -1.006988,0.585213 -1.586928,0.295243 -0.574668,-0.289971 -0.801372,-0.896272 -0.50613,-1.34968 0.300514,-0.45868 1.781999,-0.595757 1.781999,-0.595757 z"
     id="path245"
     inkscape:connector-curvature="0"
     style="fill:#2b1fa6;stroke-width:0.52721858" />
  <path
     d="m 57.84689,23.12579 c -1.497301,0.896272 -3.558726,1.30223 -4.94531,0.147621 -0.02109,-0.02109 -0.04745,-0.0369 -0.06854,-0.05799 -1.323316,-1.170425 -0.759192,-3.020962 0.237249,-4.307376 1.518389,-1.966525 4.808233,-0.353236 5.340724,-0.500857 -0.110716,0.500857 1.608016,3.421648 -0.564124,4.718606 z"
     id="path247"
     inkscape:connector-curvature="0"
     style="fill:#00b5a9;stroke-width:0.52721858" />
  <path
     d="m 56.934802,19.719958 c 0,0 0.41123,2.31449 -0.474497,3.100045 -0.885727,0.780284 -2.282856,0.817189 -3.121134,0.07908 -0.838275,-0.738106 -0.80137,-1.97707 0.08436,-2.757353 0.885727,-0.785556 3.511276,-0.421775 3.511276,-0.421775 z"
     id="path249"
     inkscape:connector-curvature="0"
     style="fill:#deb366;stroke-width:0.52721858" />
  <path
     d="m 56.317956,20.262993 c 0,0 0.16871,1.887443 -0.45868,2.441022 -0.62739,0.55358 -1.655467,0.548307 -2.293401,-0.01054 -0.637934,-0.564124 -0.643207,-1.47094 -0.01582,-2.02452 0.632663,-0.558851 2.767898,-0.405958 2.767898,-0.405958 z"
     id="path251"
     inkscape:connector-curvature="0"
     style="fill:#0084ff;stroke-width:0.52721858" />
  <path
     d="m 55.606211,20.890383 c 0,0 0.221432,1.22842 -0.179254,1.581656 -0.400687,0.353236 -1.080798,0.321603 -1.528934,-0.07381 -0.442864,-0.395414 -0.485041,-0.996443 -0.08436,-1.349679 0.400686,-0.353237 1.792543,-0.158166 1.792543,-0.158166 z"
     id="path253"
     inkscape:connector-curvature="0"
     style="fill:#2b1fa6;stroke-width:0.52721858" />
  <path
     d="m 49.775176,29.378602 c -1.381312,0.822461 -3.274027,1.196786 -4.544624,0.137077 -0.02109,-0.01582 -0.04218,-0.03163 -0.06327,-0.05272 -1.217875,-1.075526 -0.695929,-2.778442 0.221432,-3.964684 1.397129,-1.808359 4.423364,-0.321603 4.908405,-0.463952 -0.105444,0.463952 1.476212,3.152767 -0.521947,4.344281 z"
     id="path255"
     inkscape:connector-curvature="0"
     style="fill:#008777;stroke-width:0.52721858" />
  <path
     d="m 48.936899,26.246924 c 0,0 0.379597,2.129963 -0.437592,2.852252 -0.811916,0.717017 -2.09833,0.748651 -2.868069,0.07381 -0.769739,-0.680112 -0.732833,-1.818904 0.07908,-2.535921 0.811917,-0.727562 3.226578,-0.390142 3.226578,-0.390142 z"
     id="path257"
     inkscape:connector-curvature="0"
     style="fill:#deb366;stroke-width:0.52721858" />
  <path
     d="m 48.367503,26.742509 c 0,0 0.158165,1.734549 -0.421775,2.245951 -0.579941,0.511402 -1.523662,0.50613 -2.108874,-0.01054 -0.585213,-0.516674 -0.590485,-1.34968 -0.01055,-1.861082 0.579941,-0.511402 2.541194,-0.374325 2.541194,-0.374325 z"
     id="path259"
     inkscape:connector-curvature="0"
     style="fill:#0084ff;stroke-width:0.52721858" />
  <path
     d="m 47.713752,27.32245 c 0,0 0.205615,1.128247 -0.163438,1.455123 -0.369053,0.326875 -0.996443,0.295242 -1.407674,-0.06854 -0.41123,-0.363781 -0.442863,-0.917361 -0.07908,-1.244236 0.369053,-0.321604 1.650194,-0.142349 1.650194,-0.142349 z"
     id="path261"
     inkscape:connector-curvature="0"
     style="fill:#2b1fa6;stroke-width:0.52721858" />
  <path
     d="m 42.436294,33.844143 c -0.948994,0.564124 -2.251223,0.822461 -3.121134,0.0949 -0.01582,-0.01054 -0.02636,-0.02109 -0.04218,-0.03691 -0.838277,-0.738106 -0.479768,-1.908531 0.152894,-2.720447 0.959538,-1.238964 3.036779,-0.221432 3.374199,-0.316332 -0.07908,0.311059 1.006987,2.161597 -0.363781,2.978785 z"
     id="path263"
     inkscape:connector-curvature="0"
     style="fill:#00717d;stroke-width:0.52721858" />
  <path
     d="m 41.861626,31.693092 c 0,0 0.258337,1.460395 -0.300515,1.95598 -0.558852,0.495586 -1.439307,0.516675 -1.971797,0.04745 -0.527219,-0.469224 -0.50613,-1.249508 0.05272,-1.739821 0.558852,-0.495586 2.219591,-0.263609 2.219592,-0.263609 z"
     id="path265"
     inkscape:connector-curvature="0"
     style="fill:#deb366;stroke-width:0.52721858" />
  <path
     d="m 41.471484,32.030511 c 0,0 0.105444,1.191514 -0.28997,1.544751 -0.395414,0.353236 -1.043893,0.347964 -1.449851,-0.0053 -0.400686,-0.353237 -0.405959,-0.927905 -0.01055,-1.281141 0.400686,-0.353237 1.750366,-0.258338 1.750366,-0.258338 z"
     id="path267"
     inkscape:connector-curvature="0"
     style="fill:#0084ff;stroke-width:0.52721858" />
  <path
     d="m 41.018076,32.431198 c 0,0 0.142349,0.775011 -0.110716,1.001715 -0.253065,0.221432 -0.685384,0.200343 -0.96481,-0.04745 -0.279426,-0.247793 -0.305787,-0.632662 -0.05272,-0.854094 0.253065,-0.226704 1.128248,-0.100171 1.128248,-0.100171 z"
     id="path269"
     inkscape:connector-curvature="0"
     style="fill:#2b1fa6;stroke-width:0.52721858" />
  <path
     d="m 60.762408,32.473375 c -1.781998,0.543035 -3.9805,0.45868 -5.01912,-1.028076 -0.01582,-0.02636 -0.03691,-0.04745 -0.05272,-0.07381 -0.975355,-1.492028 0.158165,-3.221305 1.555295,-4.275742 2.12469,-1.613289 4.94531,0.790828 5.52525,0.764467 -0.268881,0.474496 0.569396,3.827606 -2.008703,4.613162 z"
     id="path271"
     inkscape:connector-curvature="0"
     style="fill:#00b5a9;stroke-width:0.52721858" />
  <path
     d="m 60.883669,28.830295 c 0,0 -0.295243,2.425205 -1.42349,3.005146 -1.128248,0.574668 -2.546466,0.279425 -3.163312,-0.664296 -0.616846,-0.943721 -0.200343,-2.177412 0.927905,-2.752081 1.128248,-0.57994 3.658897,0.411231 3.658897,0.411231 z"
     id="path273"
     inkscape:connector-curvature="0"
     style="fill:#deb366;stroke-width:0.52721858" />
  <path
     d="m 60.098113,29.225709 c 0,0 -0.405958,1.940164 -1.20733,2.346122 -0.801373,0.411231 -1.834721,0.158166 -2.303946,-0.558851 -0.469224,-0.717018 -0.200343,-1.634378 0.606302,-2.040336 0.801372,-0.405958 2.904974,0.253065 2.904974,0.253065 z"
     id="path275"
     inkscape:connector-curvature="0"
     style="fill:#0084ff;stroke-width:0.52721858" />
  <path
     d="m 59.191297,29.689661 c 0,0 -0.152893,1.291686 -0.659023,1.550023 -0.511402,0.258337 -1.186242,0.06327 -1.51839,-0.437592 -0.326875,-0.500857 -0.179254,-1.117703 0.326876,-1.381312 0.50613,-0.258338 1.850537,0.268881 1.850537,0.268881 z"
     id="path277"
     inkscape:connector-curvature="0"
     style="fill:#2b1fa6;stroke-width:0.52721858" />
  <path
     d="m 52.896307,36.195538 c -1.639647,0.500858 -3.658894,0.421775 -4.618431,-0.943721 -0.01582,-0.02109 -0.03163,-0.04218 -0.04745,-0.06854 -0.896272,-1.37604 0.147621,-2.962968 1.428762,-3.93305 1.955981,-1.486756 4.544621,0.727562 5.082384,0.706473 -0.24252,0.432319 0.527219,3.516548 -1.845265,4.238838 z"
     id="path279"
     inkscape:connector-curvature="0"
     style="fill:#008777;stroke-width:0.52721858" />
  <path
     d="m 53.007023,32.8477 c 0,0 -0.268881,2.235407 -1.307499,2.762625 -1.038621,0.527219 -2.34085,0.258338 -2.910246,-0.611573 -0.569397,-0.869911 -0.184527,-2.003431 0.854094,-2.530649 1.03862,-0.537763 3.363651,0.379597 3.363651,0.379597 z"
     id="path281"
     inkscape:connector-curvature="0"
     style="fill:#deb366;stroke-width:0.52721858" />
  <path
     d="m 52.290009,33.211481 c 0,0 -0.369053,1.781999 -1.107159,2.161596 -0.738106,0.374325 -1.6871,0.147621 -2.119419,-0.511402 -0.432319,-0.659023 -0.184526,-1.502573 0.55358,-1.876898 0.738106,-0.379597 2.672998,0.226704 2.672998,0.226704 z"
     id="path283"
     inkscape:connector-curvature="0"
     style="fill:#0084ff;stroke-width:0.52721858" />
  <path
     d="m 51.451731,33.638528 c 0,0 -0.137077,1.186242 -0.606301,1.42349 -0.469225,0.237249 -1.091343,0.05799 -1.391857,-0.400686 -0.300515,-0.463952 -0.16871,-1.028076 0.300514,-1.270597 0.463953,-0.237248 1.697644,0.247793 1.697644,0.247793 z"
     id="path285"
     inkscape:connector-curvature="0"
     style="fill:#2b1fa6;stroke-width:0.52721858" />
  <path
     d="m 44.313192,38.889625 c -1.096615,0.332148 -2.451566,0.284698 -3.094773,-0.632662 -0.01054,-0.01582 -0.02109,-0.03163 -0.03163,-0.04218 -0.601029,-0.922632 0.100171,-1.982342 0.959538,-2.636093 1.312774,-0.996443 3.047323,0.485041 3.405832,0.474497 -0.163438,0.284698 0.353236,2.351395 -1.238964,2.836436 z"
     id="path287"
     inkscape:connector-curvature="0"
     style="fill:#00717d;stroke-width:0.52721858" />
  <path
     d="m 44.387003,36.643674 c 0,0 -0.179255,1.497301 -0.875183,1.850537 -0.695929,0.353236 -1.571112,0.173982 -1.950709,-0.41123 -0.379597,-0.579941 -0.126532,-1.344408 0.574668,-1.697644 0.695929,-0.353237 2.251224,0.258337 2.251224,0.258337 z"
     id="path289"
     inkscape:connector-curvature="0"
     style="fill:#deb366;stroke-width:0.52721858" />
  <path
     d="m 43.907234,36.886194 c 0,0 -0.247793,1.196787 -0.743379,1.449851 -0.495585,0.253065 -1.128247,0.100172 -1.418217,-0.342692 -0.289971,-0.442863 -0.121261,-1.006987 0.374325,-1.260052 0.490313,-0.253065 1.787271,0.152893 1.787271,0.152893 z"
     id="path291"
     inkscape:connector-curvature="0"
     style="fill:#0084ff;stroke-width:0.52721858" />
  <path
     d="m 43.348382,37.176165 c 0,0 -0.0949,0.7961 -0.405958,0.954265 -0.316331,0.158166 -0.732834,0.03691 -0.933177,-0.268881 -0.200343,-0.311059 -0.110716,-0.690657 0.200343,-0.848822 0.311059,-0.163438 1.138792,0.163438 1.138792,0.163438 z"
     id="path293"
     inkscape:connector-curvature="0"
     style="fill:#2b1fa6;stroke-width:0.52721858" />
  <path
     d="m 60.103385,41.694428 c -1.576383,0.05272 -3.316205,-0.479769 -3.743252,-1.897987 -0.0053,-0.02109 -0.01582,-0.04745 -0.02109,-0.06854 -0.374326,-1.407673 1.006987,-2.546465 2.419933,-3.094773 2.145779,-0.838277 3.743252,1.692372 4.217748,1.792544 -0.342692,0.326875 -0.590484,3.189672 -2.873341,3.268755 z"
     id="path295"
     inkscape:connector-curvature="0"
     style="fill:#00b5a9;stroke-width:0.52721858" />
  <path
     d="m 61.2,38.799998 c 0,0 -0.901544,1.88217 -1.961253,2.103602 C 58.173765,41.125032 57.1246,40.581997 56.887352,39.696269 56.650104,38.80527 57.319671,37.908998 58.384653,37.687567 59.444362,37.466135 61.2,38.799998 61.2,38.799998 Z"
     id="path297"
     inkscape:connector-curvature="0"
     style="fill:#deb366;stroke-width:0.52721858" />
  <path
     d="m 60.461894,38.952891 c 0,0 -0.854094,1.465668 -1.608017,1.623833 -0.753922,0.158166 -1.513117,-0.263609 -1.692371,-0.938449 -0.179255,-0.674839 0.28997,-1.349679 1.043892,-1.507845 0.753923,-0.158165 2.256496,0.822461 2.256496,0.822461 z"
     id="path299"
     inkscape:connector-curvature="0"
     style="fill:#0084ff;stroke-width:0.52721858" />
  <path
     d="m 59.602528,39.126873 c 0,0 -0.474497,1.001716 -0.954266,1.101887 -0.479769,0.100172 -0.970082,-0.200343 -1.096615,-0.67484 -0.126532,-0.474496 0.163438,-0.938449 0.643207,-1.033348 0.479769,-0.100172 1.407674,0.606301 1.407674,0.606301 z"
     id="path301"
     inkscape:connector-curvature="0"
     style="fill:#2b1fa6;stroke-width:0.52721858" />
  <path
     d="m 52.780319,43.00193 c -1.449848,0.04745 -3.04732,-0.442864 -3.442734,-1.745094 -0.0053,-0.02109 -0.01582,-0.04218 -0.02109,-0.06327 -0.342692,-1.291685 0.927905,-2.34085 2.224862,-2.84698 1.977067,-0.775011 3.448007,1.555295 3.880326,1.650194 -0.311059,0.295242 -0.543035,2.931335 -2.641365,3.005146 z"
     id="path303"
     inkscape:connector-curvature="0"
     style="fill:#008777;stroke-width:0.52721858" />
  <path
     d="m 53.787307,40.334204 c 0,0 -0.827733,1.734549 -1.808357,1.934892 -0.975355,0.200343 -1.945437,-0.295242 -2.166868,-1.112431 -0.21616,-0.817189 0.400686,-1.644922 1.37604,-1.850537 0.985899,-0.200343 2.599185,1.028076 2.599185,1.028076 z"
     id="path305"
     inkscape:connector-curvature="0"
     style="fill:#deb366;stroke-width:0.52721858" />
  <path
     d="m 53.107195,40.476553 c 0,0 -0.785553,1.349679 -1.481482,1.492028 -0.695928,0.142349 -1.391857,-0.24252 -1.555294,-0.864638 -0.163438,-0.622118 0.263609,-1.244236 0.959537,-1.386585 0.695929,-0.142349 2.077239,0.759195 2.077239,0.759195 z"
     id="path307"
     inkscape:connector-curvature="0"
     style="fill:#0084ff;stroke-width:0.52721858" />
  <path
     d="m 52.321642,40.639991 c 0,0 -0.437592,0.922632 -0.875183,1.012259 -0.442864,0.08963 -0.890999,-0.184526 -1.006987,-0.622118 -0.115988,-0.432319 0.147621,-0.859366 0.590484,-0.954265 0.437592,-0.08963 1.291686,0.564124 1.291686,0.564124 z"
     id="path309"
     inkscape:connector-curvature="0"
     style="fill:#2b1fa6;stroke-width:0.52721858" />
  <path
     d="m 44.012677,43.982556 c -1.154608,0.04218 -2.430477,-0.353236 -2.741536,-1.386585 -0.0053,-0.01582 -0.01055,-0.03163 -0.01582,-0.05272 -0.274153,-1.028077 0.738106,-1.866354 1.771455,-2.26704 1.571111,-0.616846 2.741536,1.238963 3.0895,1.312774 -0.247792,0.237248 -0.427047,2.34085 -2.103602,2.393572 z"
     id="path311"
     inkscape:connector-curvature="0"
     style="fill:#00717d;stroke-width:0.52721858" />
  <path
     d="m 44.81405,41.863138 c 0,0 -0.659024,1.381312 -1.439307,1.539478 -0.780284,0.163438 -1.550023,-0.237249 -1.724005,-0.885727 -0.173982,-0.653751 0.316331,-1.307502 1.096615,-1.47094 0.785555,-0.163438 2.066697,0.817189 2.066697,0.817189 z"
     id="path313"
     inkscape:connector-curvature="0"
     style="fill:#deb366;stroke-width:0.52721858" />
  <path
     d="m 44.276287,41.973854 c 0,0 -0.62739,1.075525 -1.18097,1.191513 -0.553579,0.115989 -1.107159,-0.19507 -1.238964,-0.685384 -0.131804,-0.495585 0.210888,-0.991171 0.764467,-1.101886 0.55358,-0.121261 1.655467,0.595757 1.655467,0.595757 z"
     id="path315"
     inkscape:connector-curvature="0"
     style="fill:#0084ff;stroke-width:0.52721858" />
  <path
     d="m 43.648897,42.105658 c 0,0 -0.347965,0.732834 -0.701201,0.806645 -0.353237,0.07381 -0.711745,-0.147622 -0.801372,-0.495586 -0.08963,-0.347964 0.115988,-0.685384 0.469224,-0.759195 0.353237,-0.07381 1.033349,0.448136 1.033349,0.448136 z"
     id="path317"
     inkscape:connector-curvature="0"
     style="fill:#2b1fa6;stroke-width:0.52721858" />
  <path
     d="m 57.788896,50.272274 c -1.402402,-0.316331 -2.77317,-1.186242 -2.730992,-2.525377 v -0.06327 c 0.08436,-1.323319 1.634377,-2.008703 3.036778,-2.166869 2.135236,-0.247792 2.799531,2.346123 3.184401,2.546466 -0.400687,0.200343 -1.460396,2.662454 -3.490187,2.209046 z"
     id="path319"
     inkscape:connector-curvature="0"
     style="fill:#00b5a9;stroke-width:0.52721858" />
  <path
     d="m 59.602528,47.978873 c 0,0 -1.344408,1.449851 -2.346123,1.397129 -1.001715,-0.05272 -1.766182,-0.769739 -1.71346,-1.602744 0.05272,-0.838278 0.906816,-1.47094 1.908531,-1.42349 1.001715,0.04745 2.151052,1.629105 2.151052,1.629105 z"
     id="path321"
     inkscape:connector-curvature="0"
     style="fill:#deb366;stroke-width:0.52721858" />
  <path
     d="m 58.911871,47.941968 c 0,0 -1.186242,1.096614 -1.892714,1.059709 -0.711745,-0.03691 -1.254781,-0.57994 -1.212603,-1.212603 0.04218,-0.637934 0.648479,-1.122975 1.360224,-1.08607 0.706473,0.03163 1.745093,1.238964 1.745093,1.238964 z"
     id="path323"
     inkscape:connector-curvature="0"
     style="fill:#0084ff;stroke-width:0.52721858" />
  <path
     d="m 58.105227,47.89979 c 0,0 -0.711745,0.769739 -1.165153,0.748651 -0.453408,-0.02109 -0.790828,-0.400687 -0.764467,-0.84355 0.02636,-0.442864 0.416503,-0.785556 0.869911,-0.764467 0.448135,0.02109 1.059709,0.859366 1.059709,0.859366 z"
     id="path325"
     inkscape:connector-curvature="0"
     style="fill:#2b1fa6;stroke-width:0.52721858" />
  <path
     d="m 50.961418,49.739783 c -1.291685,-0.28997 -2.551738,-1.091342 -2.514833,-2.325034 v -0.05799 c 0.07908,-1.217875 1.507846,-1.845265 2.794259,-1.992886 1.966522,-0.226704 2.572824,2.156324 2.92606,2.34085 -0.358508,0.184527 -1.333863,2.451567 -3.205486,2.035064 z"
     id="path327"
     inkscape:connector-curvature="0"
     style="fill:#008777;stroke-width:0.52721858" />
  <path
     d="m 52.632701,47.625636 c 0,0 -1.238964,1.333863 -2.156324,1.286414 -0.91736,-0.04745 -1.623833,-0.706473 -1.576384,-1.476212 0.04745,-0.769739 0.838278,-1.354952 1.755638,-1.307502 0.917361,0.04745 1.97707,1.4973 1.97707,1.4973 z"
     id="path329"
     inkscape:connector-curvature="0"
     style="fill:#deb366;stroke-width:0.52721858" />
  <path
     d="m 51.994766,47.594003 c 0,0 -1.091342,1.006988 -1.739821,0.975355 -0.653751,-0.03163 -1.154609,-0.532491 -1.117703,-1.117704 0.0369,-0.585212 0.595757,-1.033348 1.249508,-0.996443 0.653751,0.02636 1.608016,1.138792 1.608016,1.138792 z"
     id="path331"
     inkscape:connector-curvature="0"
     style="fill:#0084ff;stroke-width:0.52721858" />
  <path
     d="m 51.251388,47.557098 c 0,0 -0.653751,0.711745 -1.070253,0.690656 -0.416503,-0.02109 -0.727562,-0.369053 -0.701201,-0.775011 0.02636,-0.41123 0.384869,-0.722289 0.801372,-0.701201 0.411231,0.01582 0.970082,0.785556 0.970082,0.785556 z"
     id="path333"
     inkscape:connector-curvature="0"
     style="fill:#2b1fa6;stroke-width:0.52721858" />
  <path
     d="m 42.504832,49.20202 c -1.175697,-0.263609 -2.330306,-0.996443 -2.2934,-2.124691 v -0.05272 c 0.07381,-1.112431 1.37604,-1.687099 2.551737,-1.818904 1.792543,-0.205615 2.351395,1.971798 2.672998,2.140508 -0.337419,0.16871 -1.228419,2.240679 -2.931335,1.855809 z"
     id="path335"
     inkscape:connector-curvature="0"
     style="fill:#00717d;stroke-width:0.52721858" />
  <path
     d="m 44.028494,47.277672 c 0,0 -1.128248,1.217875 -1.971798,1.175698 -0.838277,-0.04218 -1.481484,-0.643207 -1.439306,-1.344408 0.04745,-0.7012 0.764467,-1.238963 1.602744,-1.196786 0.84355,0.03691 1.80836,1.365496 1.80836,1.365496 z"
     id="path337"
     inkscape:connector-curvature="0"
     style="fill:#deb366;stroke-width:0.52721858" />
  <path
     d="m 43.448553,47.246039 c 0,0 -0.996443,0.91736 -1.5922,0.891 -0.595757,-0.03163 -1.054437,-0.485042 -1.017531,-1.017532 0.0369,-0.532491 0.548307,-0.943722 1.144064,-0.912088 0.595757,0.02636 1.465667,1.03862 1.465667,1.03862 z"
     id="path339"
     inkscape:connector-curvature="0"
     style="fill:#0084ff;stroke-width:0.52721858" />
  <path
     d="m 42.768442,47.209134 c 0,0 -0.595757,0.648479 -0.975355,0.62739 -0.379597,-0.02109 -0.664295,-0.33742 -0.643206,-0.711745 0.02636,-0.374325 0.353236,-0.659023 0.727561,-0.643207 0.379598,0.02636 0.891,0.727562 0.891,0.727562 z"
     id="path341"
     inkscape:connector-curvature="0"
     style="fill:#2b1fa6;stroke-width:0.52721858" />
  <path
     d="m 52.511441,56.851965 c -1.165153,-0.61158 -2.135236,-1.70292 -1.6871,-2.87862 0.0053,-0.0211 0.01582,-0.0369 0.02109,-0.058 0.479769,-1.14934 2.087783,-1.38659 3.400557,-1.19679 1.998158,0.28997 1.803087,2.73099 2.087785,2.99988 -0.427047,0.0896 -2.135235,2.01925 -3.822331,1.13352 z"
     id="path343"
     inkscape:connector-curvature="0"
     style="fill:#00b5a9;stroke-width:0.52721858" />
  <path
     d="m 54.847016,55.254485 c 0,0 -1.655466,0.95954 -2.541191,0.68012 -0.885727,-0.27943 -1.354951,-1.09662 -1.054437,-1.81891 0.305787,-0.72756 1.270597,-1.08607 2.156321,-0.80664 0.885728,0.27942 1.439307,1.94543 1.439307,1.94543 z"
     id="path345"
     inkscape:connector-curvature="0"
     style="fill:#deb366;stroke-width:0.52721858" />
  <path
     d="m 54.235443,55.059415 c 0,0 -1.402402,0.68539 -2.029789,0.48504 -0.62739,-0.20034 -0.948994,-0.80664 -0.72229,-1.36022 0.231977,-0.55358 0.927905,-0.83828 1.555292,-0.63793 0.632663,0.20561 1.196787,1.51311 1.196787,1.51311 z"
     id="path347"
     inkscape:connector-curvature="0"
     style="fill:#0084ff;stroke-width:0.52721858" />
  <path
     d="m 53.518425,54.832715 c 0,0 -0.87518,0.5114 -1.275866,0.38487 -0.400686,-0.12653 -0.590485,-0.54304 -0.432319,-0.92791 0.163438,-0.38487 0.616846,-0.59575 1.017529,-0.46922 0.400686,0.1318 0.690656,1.01226 0.690656,1.01226 z"
     id="path349"
     inkscape:connector-curvature="0"
     style="fill:#2b1fa6;stroke-width:0.52721858" />
  <path
     d="m 46.52751,54.769445 c -1.075526,-0.55885 -1.966525,-1.56584 -1.555295,-2.646634 0.0053,-0.01582 0.01054,-0.03691 0.02109,-0.05272 0.442863,-1.054437 1.919075,-1.275869 3.126406,-1.101887 1.839993,0.263609 1.655466,2.514831 1.919075,2.762621 -0.384869,0.0791 -1.95598,1.85054 -3.511275,1.03862 z"
     id="path351"
     inkscape:connector-curvature="0"
     style="fill:#008777;stroke-width:0.52721858" />
  <path
     d="m 48.678562,53.298505 c 0,0 -1.523662,0.88573 -2.335579,0.62739 -0.811916,-0.25833 -1.249508,-1.00698 -0.970082,-1.676552 0.279426,-0.669567 1.165153,-1.001715 1.982342,-0.743378 0.811917,0.258337 1.323319,1.79254 1.323319,1.79254 z"
     id="path353"
     inkscape:connector-curvature="0"
     style="fill:#deb366;stroke-width:0.52721858" />
  <path
     d="m 48.114438,53.119255 c 0,0 -1.286414,0.63266 -1.866354,0.44813 -0.57994,-0.18452 -0.875183,-0.74337 -0.664295,-1.249503 0.210887,-0.50613 0.854094,-0.769739 1.434034,-0.585213 0.574668,0.179254 1.096615,1.386586 1.096615,1.386586 z"
     id="path355"
     inkscape:connector-curvature="0"
     style="fill:#0084ff;stroke-width:0.52721858" />
  <path
     d="m 47.455415,52.908365 c 0,0 -0.806645,0.46923 -1.175698,0.35324 -0.369053,-0.11599 -0.543035,-0.49559 -0.395414,-0.8541 0.147621,-0.353233 0.569396,-0.548303 0.933177,-0.432315 0.369053,0.12126 0.637935,0.933175 0.637935,0.933175 z"
     id="path357"
     inkscape:connector-curvature="0"
     style="fill:#2b1fa6;stroke-width:0.52721858" />
  <path
     d="M 39.520775,52.681665 C 38.540149,52.17026 37.728232,51.2529 38.102557,50.267001 l 0.01582,-0.04745 c 0.405958,-0.96481 1.750365,-1.165153 2.852252,-1.006988 1.676555,0.242521 1.513118,2.293401 1.755638,2.520105 -0.347964,0.07381 -1.781999,1.692377 -3.205489,0.948997 z"
     id="path359"
     inkscape:connector-curvature="0"
     style="fill:#00717d;stroke-width:0.52721858" />
  <path
     d="m 41.482028,51.342527 c 0,0 -1.391857,0.806645 -2.135235,0.569396 -0.743378,-0.237248 -1.138792,-0.922632 -0.885727,-1.528933 0.253065,-0.611574 1.064981,-0.912089 1.80836,-0.67484 0.74865,0.231976 1.212602,1.634377 1.212602,1.634377 z"
     id="path361"
     inkscape:connector-curvature="0"
     style="fill:#deb366;stroke-width:0.52721858" />
  <path
     d="m 40.970626,51.173817 c 0,0 -1.175697,0.574669 -1.702916,0.411231 -0.527218,-0.16871 -0.7961,-0.680112 -0.606301,-1.138792 0.195071,-0.463953 0.780283,-0.701201 1.307502,-0.532491 0.527219,0.163438 1.001715,1.260052 1.001715,1.260052 z"
     id="path363"
     inkscape:connector-curvature="0"
     style="fill:#0084ff;stroke-width:0.52721858" />
  <path
     d="m 40.369597,50.984019 c 0,0 -0.738106,0.432319 -1.070254,0.321603 -0.337419,-0.105444 -0.495585,-0.453408 -0.36378,-0.780283 0.137076,-0.321604 0.516674,-0.500858 0.854094,-0.395414 0.33742,0.115988 0.57994,0.854094 0.57994,0.854094 z"
     id="path365"
     inkscape:connector-curvature="0"
     style="fill:#2b1fa6;stroke-width:0.52721858" />
  <path
     d="m 35.382109,56.962675 3.121134,0.78029 0.04745,-0.18453 -3.85924,-1.46039 h 0.01582 c -0.511402,-2.62028 -0.479769,-5.092938 -0.158166,-6.484795 -0.495585,-1.655466 0.189799,-4.196659 0.912088,-6.173729 l -2.989329,1.42349 c 1.096615,1.286414 1.228419,3.100045 0.437591,4.750239 0.595757,1.354952 1.434035,4.180845 1.054438,6.590235 -0.0053,0.005 -0.01582,0.005 -0.02109,0.005 l -1.955981,2.04561 -1.955981,-2.04561 c -0.384869,-2.40939 0.453408,-5.240553 1.054437,-6.600777 -0.790828,-1.644922 -0.659023,-3.463826 0.437592,-4.750239 l -2.98933,-1.42349 c 0.72229,1.97707 1.407674,4.518263 0.912088,6.173729 0.321604,1.391857 0.353237,3.864517 -0.158165,6.484787 l -3.869784,1.4604 0.04745,0.18453 3.121134,-0.78029 c 0.137077,-0.0316 0.247793,0.11072 0.179255,0.23198 l -1.507846,2.73099 0.163438,0.0633 2.367212,-2.81535 c 0.05272,-0.0633 0.142349,-0.0738 0.210887,-0.0316 l 1.966525,1.33913 0.01582,0.0264 0.01054,-0.005 0.01055,0.005 0.01582,-0.0264 1.966525,-1.33913 c 0.06854,-0.0475 0.158166,-0.0316 0.210888,0.0316 l 2.367211,2.81535 0.163438,-0.0633 -1.523662,-2.72572 c -0.06854,-0.12126 0.04218,-0.26888 0.179254,-0.23198 z"
     id="path367"
     inkscape:connector-curvature="0"
     style="fill:#eda800;stroke-width:0.52721858" />
  <linearGradient
     id="d"
     x1="59.521"
     x2="59.521"
     y1="96.044998"
     y2="103.21"
     gradientUnits="userSpaceOnUse"
     gradientTransform="matrix(0.52721856,0,0,0.52721856,-1.7393495,-5.317651)">
    <stop
       offset="0"
       id="stop369" />
    <stop
       stop-color="#17316E"
       offset=".375"
       id="stop371" />
  </linearGradient>
  <path
     d="m 31.533414,46.687187 c 0,0 -0.100172,2.298673 -0.595757,2.694087 -0.495585,0.400686 -1.117703,0.374325 -1.634378,0 -0.516674,-0.374325 -1.54475,-4.581529 -1.54475,-4.581529 z"
     id="path374"
     inkscape:connector-curvature="0"
     style="fill:url(#d);stroke-width:0.52721858" />
  <linearGradient
     id="c"
     x1="68.478996"
     x2="68.478996"
     y1="95.025002"
     y2="103.81"
     gradientUnits="userSpaceOnUse"
     gradientTransform="matrix(0.52721856,0,0,0.52721856,-1.7393495,-5.317651)">
    <stop
       offset="0"
       id="stop376" />
    <stop
       stop-color="#17316E"
       offset=".375"
       id="stop378" />
  </linearGradient>
  <path
     d="m 32.471863,46.687187 c 0,0 0.100172,2.298673 0.595757,2.694087 0.495585,0.400686 1.117703,0.374325 1.634378,0 0.516674,-0.374325 1.54475,-4.581529 1.54475,-4.581529 z"
     id="path381"
     inkscape:connector-curvature="0"
     style="fill:url(#c);stroke-width:0.52721858" />
  <path
     d="m 32.893638,12.460158 c -0.189799,0.205616 -0.179254,0.521947 0.02109,0.711746 0.205615,0.189798 0.521946,0.179254 0.711745,-0.02109 0.189798,-0.200343 0.179254,-0.521947 -0.02109,-0.711745 -0.200343,-0.189799 -0.521946,-0.179255 -0.711745,0.02109 z"
     id="path383"
     inkscape:connector-curvature="0"
     style="stroke-width:0.52721858" />
  <path
     d="m 33.510484,12.939927 c -0.268882,0.06854 -0.43232,0.342692 -0.363781,0.616846 0.06854,0.268882 0.342692,0.432319 0.616846,0.358509 0.268881,-0.06854 0.432319,-0.342692 0.358508,-0.616846 -0.06854,-0.268881 -0.342692,-0.427047 -0.611573,-0.358509 z"
     id="path385"
     inkscape:connector-curvature="0"
     style="stroke-width:0.52721858" />
  <path
     d="m 32.461319,12.533969 c -0.142349,0.237248 -0.06854,0.548307 0.16871,0.690656 0.237248,0.142349 0.548307,0.06854 0.690656,-0.16871 0.142349,-0.237248 0.06854,-0.548307 -0.16871,-0.690656 -0.237248,-0.147621 -0.548307,-0.06854 -0.690656,0.16871 z"
     id="path387"
     inkscape:connector-curvature="0"
     style="stroke-width:0.52721858" />
  <path
     d="m 31.338343,13.01901 c 0.179254,0.105444 0.363781,0.231976 0.55358,0.379598 -0.347965,1.766182 -1.581656,2.166868 -3.100046,1.919075 l 0.437592,-0.395414 c 0.205615,0.05272 0.432319,0.06327 0.669567,0.01055 0.669568,-0.142349 1.117704,-0.695929 1.001716,-1.238964 -0.01582,-0.07381 -0.04218,-0.147621 -0.07381,-0.210888 z"
     id="path389"
     inkscape:connector-curvature="0"
     style="fill:#d9d9d9;stroke-width:0.52721858" />
  <linearGradient
     id="b"
     x1="45.171001"
     x2="61.937"
     y1="36.620998"
     y2="36.620998"
     gradientUnits="userSpaceOnUse"
     gradientTransform="matrix(0.52721856,0,0,0.52721856,-1.7393495,-5.317651)">
    <stop
       stop-color="#E9F5CE"
       offset="0"
       id="stop391" />
    <stop
       stop-color="#E5F3CD"
       offset=".1254"
       id="stop393" />
    <stop
       stop-color="#D8EECA"
       offset=".2573"
       id="stop395" />
    <stop
       stop-color="#C3E5C6"
       offset=".3924"
       id="stop397" />
    <stop
       stop-color="#A6D9C0"
       offset=".5297"
       id="stop399" />
    <stop
       stop-color="#80C9B9"
       offset=".6686"
       id="stop401" />
    <stop
       stop-color="#51B6B0"
       offset=".8088"
       id="stop403" />
    <stop
       stop-color="#1BA0A5"
       offset=".9477"
       id="stop405" />
    <stop
       stop-color="#0596A1"
       offset="1"
       id="stop407" />
  </linearGradient>
  <path
     d="m 30.916568,12.797578 -0.590485,0.242521 c -0.24252,-0.105444 -0.537762,-0.137077 -0.843549,-0.07381 -0.495586,0.105444 -0.875183,0.437592 -0.985899,0.827733 l -1.97707,0.817189 0.400687,0.848822 c -0.173983,-0.105444 -0.369053,-0.205615 -0.590485,-0.28997 -1.745094,-0.685384 -3.115862,-0.996443 -4.254654,-0.564124 0.653751,-1.13352 2.493744,-1.781999 4.444452,-1.687099 v 1.03862 c 1.017532,-0.221432 2.235407,-2.135235 4.397003,-1.159882 z"
     id="path410"
     inkscape:connector-curvature="0"
     style="fill:url(#b);stroke-width:0.52721858" />
  <path
     d="m 30.89548,13.699122 c 0.115988,0.543035 -0.332148,1.101887 -1.001716,1.238964 -0.231976,0.04745 -0.463952,0.04218 -0.669567,-0.01055 l 1.5922,-1.439306 c 0.03691,0.06327 0.06327,0.131804 0.07908,0.210887 z"
     id="path412"
     inkscape:connector-curvature="0"
     style="stroke-width:0.52721858" />
  <path
     d="m 30.821669,13.482962 -1.5922,1.439307 c -0.379597,-0.100171 -0.67484,-0.363781 -0.74865,-0.717017 -0.03163,-0.137077 -0.02109,-0.279426 0.01582,-0.411231 l 1.829448,-0.753922 c 0.21616,0.0949 0.395414,0.247793 0.495586,0.442863 z"
     id="path414"
     inkscape:connector-curvature="0"
     style="stroke-width:0.52721858" />
  <path
     d="m 30.326083,13.040099 -1.829448,0.753922 c 0.110716,-0.390141 0.490313,-0.722289 0.985899,-0.827733 0.300514,-0.06327 0.595757,-0.03163 0.843549,0.07381 z"
     id="path416"
     inkscape:connector-curvature="0"
     style="stroke-width:0.52721858" />
  <path
     d="m 26.519565,12.913566 v 1.038621 c 1.017532,-0.21616 2.235407,-2.129963 4.397003,-1.154609 l -0.590485,0.242521 c 0.221432,0.0949 0.395414,0.247793 0.495586,0.442863 l 0.516674,-0.463952 c 0.179254,0.105444 0.363781,0.231976 0.55358,0.379598 l 1.702916,-1.296958 c -2.920791,-1.122976 -5.751955,-1.402402 -7.075274,0.811916 z"
     id="path418"
     inkscape:connector-curvature="0"
     style="stroke-width:0.52721858" />
  <linearGradient
     id="a"
     x1="63.773998"
     x2="63.773998"
     y1="32.5"
     y2="101.75"
     gradientUnits="userSpaceOnUse"
     gradientTransform="matrix(0.52721856,0,0,0.52721856,-1.7393495,-5.317651)">
    <stop
       offset=".0719"
       id="stop420" />
    <stop
       stop-color="#000506"
       offset=".1593"
       id="stop422" />
    <stop
       stop-color="#011416"
       offset=".272"
       id="stop424" />
    <stop
       stop-color="#012D30"
       offset=".3986"
       id="stop426" />
    <stop
       stop-color="#035055"
       offset=".5351"
       id="stop428" />
    <stop
       stop-color="#047C84"
       offset=".6782"
       id="stop430" />
    <stop
       stop-color="#0596A1"
       offset=".7557"
       id="stop432" />
    <stop
       stop-color="#A9E022"
       offset="1"
       id="stop434" />
  </linearGradient>
  <path
     d="M 36.621073,28.835567 C 35.724802,26.69506 34.775808,24.517647 34.433116,22.255879 33.753004,17.774522 33.594839,12.10165 33.594839,12.10165 l -1.702916,1.296958 c -0.347965,1.766182 -1.581656,2.166868 -3.100046,1.919075 l 0.437592,-0.395414 c -0.379597,-0.100171 -0.67484,-0.363781 -0.74865,-0.717017 -0.03163,-0.137077 -0.02109,-0.279426 0.01582,-0.411231 l -1.945436,0.711745 0.374325,0.948994 c 2.056152,1.25478 2.504288,3.674713 2.282856,6.795847 -0.326875,4.570985 -3.384743,8.293148 -4.265198,12.705967 -0.590485,2.973513 -0.659023,6.352984 0.653751,9.157787 1.170425,2.493744 3.469098,3.875056 6.210635,3.869784 4.381186,-0.0053 6.748397,-3.163311 7.312521,-7.280888 0.463952,-3.416376 -0.521946,-6.790575 -1.724005,-9.953887 -0.24252,-0.637934 -0.506129,-1.275869 -0.775011,-1.913803 z"
     id="path437"
     inkscape:connector-curvature="0"
     style="fill:url(#a);stroke-width:0.52721858" />
  <path
     d="m 33.204697,10.873231 c -0.279426,0.295242 -0.263609,0.764467 0.03163,1.043892 0.295242,0.279426 0.764467,0.26361 1.043893,-0.03163 0.279426,-0.295242 0.263609,-0.764467 -0.03163,-1.043893 -0.295243,-0.284698 -0.764467,-0.268881 -1.043893,0.03163 z"
     id="path439"
     inkscape:connector-curvature="0"
     style="stroke-width:0.52721858" />
  <path
     d="m 34.106241,11.569159 c -0.395414,0.100172 -0.632663,0.50613 -0.527219,0.901544 0.100172,0.395414 0.50613,0.632662 0.901544,0.527218 0.395414,-0.100171 0.632662,-0.506129 0.527218,-0.901543 -0.105443,-0.390142 -0.50613,-0.62739 -0.901543,-0.527219 z"
     id="path441"
     inkscape:connector-curvature="0"
     style="stroke-width:0.52721858" />
  <path
     d="m 32.572035,10.978674 c -0.210888,0.347965 -0.100172,0.801373 0.247792,1.01226 0.347965,0.210887 0.801373,0.100171 1.01226,-0.247793 0.210887,-0.347964 0.100171,-0.801372 -0.247793,-1.012259 -0.347964,-0.21616 -0.801372,-0.100172 -1.012259,0.247792 z"
     id="path443"
     inkscape:connector-curvature="0"
     style="stroke-width:0.52721858" />
  <circle
     cx="30.094107"
     cy="13.957458"
     r="2.0087028"
     id="circle445"
     style="fill:#ffffff;stroke-width:0.52721858" />
  <circle
     cx="30.131012"
     cy="13.952187"
     r="0.84354973"
     id="circle447"
     style="stroke-width:0.52721858" />
  <path
     d="m 33.252147,13.129726 -0.152894,-0.05799 c 0.253065,-0.637934 0.347964,-1.318046 0.432319,-1.982342 0.137077,-1.017532 0.274154,-2.0772406 1.01226,-3.0262336 l 0.126532,0.100171 c -0.706472,0.91736 -0.843549,1.9507086 -0.980626,2.9471516 -0.08435,0.669568 -0.173982,1.360224 -0.437591,2.019247 z"
     id="path449"
     inkscape:connector-curvature="0"
     style="stroke-width:0.52721858" />
  <path
     d="m 33.030715,13.145543 0.01582,-0.163438 c 0.685384,0.05799 1.365496,-0.05272 2.019247,-0.158166 1.017532,-0.163437 2.066697,-0.33742 3.189673,0.0949 l -0.05799,0.152893 c -1.080798,-0.416503 -2.108875,-0.247793 -3.105318,-0.08436 -0.669567,0.105444 -1.360224,0.21616 -2.061424,0.158166 z"
     id="path451"
     inkscape:connector-curvature="0"
     style="stroke-width:0.52721858" />
  <path
     d="m 37.206286,12.686862 c 0.158165,-0.247792 1.128247,-0.263609 1.386585,-0.316331 0.437591,-0.0949 0.790827,-0.02636 0.711745,0.637935 -0.152894,1.339135 -1.465668,-0.05272 -2.019247,-0.115988"
     id="path453"
     inkscape:connector-curvature="0"
     style="fill:#00ffff;stroke-width:0.52721858" />
  <path
     d="m 33.183608,13.077004 -0.03163,-0.158165 c 0.67484,-0.126533 1.296958,-0.421775 1.903259,-0.706473 0.933177,-0.437592 1.897987,-0.891 3.094773,-0.780284 l -0.01582,0.163438 c -1.154608,-0.100172 -2.098329,0.342692 -3.010418,0.769739 -0.611573,0.279426 -1.244235,0.579941 -1.940164,0.711745 z"
     id="path455"
     inkscape:connector-curvature="0"
     style="stroke-width:0.52721858" />
  <path
     d="m 37.079753,11.500621 c 0.08436,-0.279426 1.01226,-0.558852 1.244236,-0.685384 0.395414,-0.210888 0.753923,-0.242521 0.859366,0.416502 0.21616,1.328591 -1.42349,0.347964 -1.971797,0.437592"
     id="path457"
     inkscape:connector-curvature="0"
     style="fill:#00ffff;stroke-width:0.52721858" />
  <path
     d="m 33.083437,13.092821 -0.07908,-0.142349 c 0.601029,-0.332148 1.101887,-0.806645 1.581655,-1.265325 0.748651,-0.706473 1.51839,-1.439306 2.688815,-1.7134596 l 0.0369,0.1581646 c -1.128247,0.26361 -1.88217,0.980627 -2.615004,1.676555 -0.485041,0.458681 -0.996443,0.943722 -1.613288,1.286414 z"
     id="path459"
     inkscape:connector-curvature="0"
     style="stroke-width:0.52721858" />
  <path
     d="m 36.283653,10.372373 c -0.0053,-0.295242 0.785556,-0.8488216 0.970082,-1.0438926 0.311059,-0.326875 0.637935,-0.463952 0.948994,0.126533 0.62739,1.1967856 -1.244236,0.7802826 -1.734549,1.0386196"
     id="path461"
     inkscape:connector-curvature="0"
     style="fill:#00ffff;stroke-width:0.52721858" />
  <path
     d="M 33.320685,13.050643 33.194152,12.9452 c 0.442864,-0.521947 0.743379,-1.144065 1.033349,-1.745094 0.448136,-0.927905 0.912088,-1.8821696 1.908531,-2.5570096 l 0.08963,0.137077 c -0.959538,0.648479 -1.412946,1.5816556 -1.855809,2.4884716 -0.28997,0.616845 -0.595757,1.244235 -1.049165,1.781998 z"
     id="path463"
     inkscape:connector-curvature="0"
     style="stroke-width:0.52721858" />
  <path
     d="m 35.350476,9.3759304 c -0.110716,-0.274154 0.43232,-1.070254 0.537763,-1.318047 0.173982,-0.41123 0.43232,-0.659023 0.927905,-0.216159 1.006987,0.896271 -0.885727,1.170425 -1.25478,1.581656"
     id="path465"
     inkscape:connector-curvature="0"
     style="fill:#00ffff;stroke-width:0.52721858" />
  <path
     d="m 34.021886,9.0016054 c -0.189799,-0.226704 0.07381,-1.154609 0.0949,-1.418218 0.0369,-0.448136 0.205615,-0.764467 0.811917,-0.500858 1.238963,0.532491 -0.474497,1.386585 -0.695929,1.897987"
     id="path467"
     inkscape:connector-curvature="0"
     style="fill:#00ffff;stroke-width:0.52721858" />
</svg>
