<?xml version="1.0" encoding="UTF-8" standalone="no"?>
<svg
   xmlns:dc="http://purl.org/dc/elements/1.1/"
   xmlns:cc="http://creativecommons.org/ns#"
   xmlns:rdf="http://www.w3.org/1999/02/22-rdf-syntax-ns#"
   xmlns:svg="http://www.w3.org/2000/svg"
   xmlns="http://www.w3.org/2000/svg"
   xmlns:xlink="http://www.w3.org/1999/xlink"
   xmlns:sodipodi="http://sodipodi.sourceforge.net/DTD/sodipodi-0.dtd"
   xmlns:inkscape="http://www.inkscape.org/namespaces/inkscape"
   enable-background="new 0 0 128 128"
   viewBox="0 0 64 64"
   version="1.1"
   id="svg4891"
   sodipodi:docname="favicon.svg"
   width="64"
   height="64"
   inkscape:version="0.92.3 (2405546, 2018-03-11)">
  <metadata
     id="metadata4895">
    <rdf:RDF>
      <cc:Work
         rdf:about="">
        <dc:format>image/svg+xml</dc:format>
        <dc:type
           rdf:resource="http://purl.org/dc/dcmitype/StillImage" />
        <dc:title></dc:title>
      </cc:Work>
    </rdf:RDF>
  </metadata>
  <sodipodi:namedview
     pagecolor="#ffffff"
     bordercolor="#666666"
     borderopacity="1"
     objecttolerance="10"
     gridtolerance="10"
     guidetolerance="10"
     inkscape:pageopacity="0"
     inkscape:pageshadow="2"
     inkscape:window-width="1414"
     inkscape:window-height="873"
     id="namedview4893"
     showgrid="false"
     inkscape:zoom="1.84375"
     inkscape:cx="64"
     inkscape:cy="64"
     inkscape:window-x="189"
     inkscape:window-y="112"
     inkscape:window-maximized="0"
     inkscape:current-layer="svg4891" />
  <linearGradient
     id="h"
     x1="63.759998"
     x2="63.759998"
     y1="37.689999"
     y2="73.273003"
     gradientUnits="userSpaceOnUse"
     gradientTransform="matrix(0.53444676,0,0,0.53445697,-2.2019207,-2.9692387)">
    <stop
       stop-color="#616161"
       offset="0"
       id="stop4798" />
    <stop
       stop-color="#212121"
       offset="1"
       id="stop4800" />
  </linearGradient>
  <path
     d="m 37.812109,23.192427 c -0.245846,-0.235161 -0.587892,-0.283262 -0.876493,-0.128269 -0.01069,0.0053 -0.951315,0.497044 -2.143132,0.416876 l -0.1443,-0.01069 c -0.994071,-0.06413 -1.934698,-0.122926 -2.976869,-0.12827 h -0.04276 c -0.59858,0.0053 -1.875908,0.07482 -2.805845,0.133615 -1.159749,0.07482 -1.972109,-0.395499 -1.972109,-0.395499 -0.288601,-0.17637 -0.64668,-0.138958 -0.903215,0.0962 -0.25119,0.235162 -0.352734,0.619971 -0.245845,0.967368 l 1.55524,5.098719 c 0.101545,0.326019 0.358079,0.561179 0.668058,0.598592 0.30998,0.04275 0.60927,-0.122925 0.774948,-0.411532 0.01069,-0.01603 0.972693,-1.68354 3.228059,-1.704918 2.228643,0.02672 3.195991,1.640783 3.233403,1.704918 0.149645,0.261883 0.406179,0.42222 0.678747,0.42222 0.03207,0 0.06413,0 0.101545,-0.0053 0.309979,-0.04276 0.571858,-0.283262 0.662714,-0.614625 l 1.448351,-5.09872 c 0.0962,-0.336707 0,-0.710827 -0.240501,-0.940644 z"
     id="path4803"
     style="fill:url(#h);stroke-width:0.53445184"
     inkscape:connector-curvature="0" />
  <linearGradient
     id="g"
     x1="31.48"
     x2="31.48"
     y1="37.689999"
     y2="73.273003"
     gradientUnits="userSpaceOnUse"
     gradientTransform="matrix(0.53444676,0,0,0.53445697,-2.2019207,-2.9692387)">
    <stop
       stop-color="#616161"
       offset="0"
       id="stop4805" />
    <stop
       stop-color="#212121"
       offset="1"
       id="stop4807" />
  </linearGradient>
  <path
     d="m 28.71048,24.202551 c 0,0 -4.029728,-4.692532 -18.481169,-3.345701 C 0.58254705,21.754738 0.05878915,22.652626 0.05878915,22.652626 L 4.88e-8,26.292278 c 0,0 1.4376617512,0.411531 2.3675991512,1.565958 0.9299373,1.138394 1.3628392,7.51981 2.8699791,10.528802 2.3355327,4.660465 13.9437157,3.479315 13.9437157,3.479315 0,0 4.735199,0.37412 7.044009,-3.612928 2.30881,-3.97636 3.014279,-9.727117 3.014279,-9.727117 z"
     id="path4810"
     style="fill:url(#g);stroke-width:0.53445184"
     inkscape:connector-curvature="0" />
  <linearGradient
     id="f"
     x1="33.752998"
     x2="33.752998"
     y1="35.771"
     y2="83.239998"
     gradientUnits="userSpaceOnUse"
     gradientTransform="matrix(0.53444676,0,0,0.53445697,-2.2019207,-2.9692387)">
    <stop
       stop-color="#ECEFF1"
       offset="0"
       id="stop4812" />
    <stop
       stop-color="#B0BEC5"
       offset="1"
       id="stop4814" />
  </linearGradient>
  <path
     d="m 25.412944,25.81661 c 0.464968,0.790998 0.839081,2.629529 -0.08551,6.878462 -0.919248,4.254278 -2.073653,7.151034 -9.946054,6.707434 -5.066555,-0.288606 -8.593904,-0.277917 -9.400919,-7.669457 -0.4970352,-4.590985 0.05879,-6.32797 0.438247,-6.883805 0.374112,-0.550491 1.726263,-2.143173 9.571941,-1.865255 7.83499,0.272573 8.962672,2.036281 9.422297,2.832621 z"
     id="path4817"
     style="fill:url(#f);stroke-width:0.53445184"
     inkscape:connector-curvature="0" />
  <path
     d="m 25.412944,25.81661 c 0.464968,0.790998 0.839081,2.629529 -0.08551,6.878462 -0.919248,4.254278 -2.073653,7.151034 -9.946054,6.707434 -5.066555,-0.288606 -8.593904,-0.277917 -9.400919,-7.669457 -0.4970352,-4.590985 0.05879,-6.32797 0.438247,-6.883805 0.374112,-0.550491 1.726263,-2.143173 9.571941,-1.865255 7.83499,0.272573 8.962672,2.036281 9.422297,2.832621 z"
     id="path4819"
     inkscape:connector-curvature="0"
     style="fill:none;stroke-width:0.53445184" />
  <defs
     id="defs4822">
    <path
       id="e"
       d="m 51.67,53.86 c 0.87,1.48 1.57,4.92 -0.16,12.87 -1.72,7.96 -3.88,13.38 -18.61,12.55 -9.48,-0.54 -16.08,-0.52 -17.59,-14.35 -0.93,-8.59 0.11,-11.84 0.82,-12.88 0.7,-1.03 3.23,-4.01 17.91,-3.49 14.66,0.51 16.77,3.81 17.63,5.3 z"
       inkscape:connector-curvature="0" />
  </defs>
  <clipPath
     id="d">
    <use
       xlink:href="#e"
       id="use4824"
       x="0"
       y="0"
       width="100%"
       height="100%" />
  </clipPath>
  <g
     clip-path="url(#d)"
     id="g4841"
     transform="translate(0,-64)">
    <linearGradient
       id="c"
       x1="12.116"
       x2="12.116"
       y1="47.138"
       y2="47.056999"
       gradientUnits="userSpaceOnUse">
      <stop
         stop-color="#9E9E9E"
         offset="0"
         id="stop4827" />
      <stop
         stop-color="#616161"
         offset="1"
         id="stop4829" />
    </linearGradient>
    <path
       d="m 12.27,47.06 c -0.11,0 -0.21,0.03 -0.31,0.06 0.1,-0.03 0.21,-0.06 0.31,-0.06 z"
       id="path4832"
       inkscape:connector-curvature="0"
       style="fill:url(#c)" />
    <linearGradient
       id="b"
       x1="11.751"
       x2="11.751"
       y1="47.386002"
       y2="47.146"
       gradientUnits="userSpaceOnUse">
      <stop
         stop-color="#9E9E9E"
         offset="0"
         id="stop4834" />
      <stop
         stop-color="#616161"
         offset="1"
         id="stop4836" />
    </linearGradient>
    <path
       d="m 11.61,47.35 c 0.08,-0.08 0.18,-0.14 0.28,-0.19 -0.1,0.04 -0.2,0.1 -0.28,0.19 z"
       id="path4839"
       inkscape:connector-curvature="0"
       style="fill:url(#b)" />
  </g>
  <g
     id="g4845"
     transform="matrix(0.53444676,0,0,0.53445695,-2.2019207,-2.9692397)"
     style="opacity:0.2">
    <path
       d="m 30.79,49.5 c 1.02,0 2.1,0.02 3.21,0.06 14.32,0.5 16.12,3.63 16.81,4.81 0.64,1.1 1.47,4.14 -0.28,12.15 -1.59,7.37 -3.38,11.84 -14.79,11.84 -0.88,0 -1.81,-0.03 -2.79,-0.08 l -0.77,-0.04 c -9.04,-0.5 -14.5,-0.8 -15.88,-13.42 -1,-9.24 0.36,-11.79 0.65,-12.21 1.36,-2.01 6.27,-3.11 13.84,-3.11 m 0,-1 c -11.82,0 -14.02,2.6 -14.67,3.55 -0.71,1.04 -1.75,4.29 -0.82,12.88 1.51,13.84 8.11,13.81 17.59,14.35 1.01,0.06 1.95,0.09 2.85,0.09 12.18,0 14.16,-5.22 15.77,-12.63 1.73,-7.95 1.03,-11.39 0.16,-12.87 C 50.81,52.38 48.7,49.08 34.04,48.56 32.88,48.52 31.8,48.5 30.79,48.5 Z"
       id="path4843"
       inkscape:connector-curvature="0"
       style="fill:#424242" />
  </g>
  <linearGradient
     id="a"
     x1="96.519997"
     x2="96.519997"
     y1="37.689999"
     y2="73.273003"
     gradientUnits="userSpaceOnUse"
     gradientTransform="matrix(0.53444676,0,0,0.53445697,-2.2019207,-2.9692387)">
    <stop
       stop-color="#616161"
       offset="0"
       id="stop4847" />
    <stop
       stop-color="#212121"
       offset="1"
       id="stop4849" />
  </linearGradient>
  <path
     d="m 35.294864,24.202551 c 0,0 4.029729,-4.692532 18.481169,-3.345701 9.646764,0.897888 10.165178,1.795776 10.165178,1.795776 L 64,26.292278 c 0,0 -1.437662,0.411531 -2.367599,1.565958 -0.929938,1.138394 -1.362839,7.51981 -2.869979,10.528802 -2.335533,4.660465 -13.943716,3.479315 -13.943716,3.479315 0,0 -4.735199,0.37412 -7.044009,-3.612928 -2.30881,-3.97636 -3.014279,-9.727117 -3.014279,-9.727117 z"
     id="path4852"
     style="fill:url(#a);stroke-width:0.53445184"
     inkscape:connector-curvature="0" />
  <linearGradient
     id="m"
     x1="94.247002"
     x2="94.247002"
     y1="35.771"
     y2="83.239998"
     gradientUnits="userSpaceOnUse"
     gradientTransform="matrix(0.53444676,0,0,0.53445697,-2.2019207,-2.9692387)">
    <stop
       stop-color="#ECEFF1"
       offset="0"
       id="stop4854" />
    <stop
       stop-color="#B0BEC5"
       offset="1"
       id="stop4856" />
  </linearGradient>
  <path
     d="m 38.592401,25.81661 c -0.464969,0.790998 -0.839082,2.629529 0.08551,6.878462 0.919249,4.254278 2.073654,7.151034 9.946055,6.707434 5.066555,-0.288606 8.593904,-0.277917 9.400918,-7.669457 0.497036,-4.590985 -0.05879,-6.32797 -0.438246,-6.883805 -0.374113,-0.550491 -1.726263,-2.143173 -9.571942,-1.865255 -7.834989,0.272573 -8.962672,2.036281 -9.422295,2.832621 z"
     id="path4859"
     style="fill:url(#m);stroke-width:0.53445184"
     inkscape:connector-curvature="0" />
  <defs
     id="defs4862">
    <path
       id="l"
       d="m 76.33,53.86 c -0.87,1.48 -1.57,4.92 0.16,12.87 1.72,7.96 3.88,13.38 18.61,12.55 9.48,-0.54 16.08,-0.52 17.59,-14.35 0.93,-8.59 -0.11,-11.84 -0.82,-12.88 -0.7,-1.03 -3.23,-4.01 -17.91,-3.49 -14.66,0.51 -16.77,3.81 -17.63,5.3 z"
       inkscape:connector-curvature="0" />
  </defs>
  <clipPath
     id="k">
    <use
       xlink:href="#l"
       id="use4864"
       x="0"
       y="0"
       width="100%"
       height="100%" />
  </clipPath>
  <g
     clip-path="url(#k)"
     id="g4881"
     transform="translate(0,-64)">
    <linearGradient
       id="j"
       x1="-67.088997"
       x2="-67.088997"
       y1="47.138"
       y2="47.056999"
       gradientTransform="matrix(-1,0,0,1,49.124,0)"
       gradientUnits="userSpaceOnUse">
      <stop
         stop-color="#9E9E9E"
         offset="0"
         id="stop4867" />
      <stop
         stop-color="#616161"
         offset="1"
         id="stop4869" />
    </linearGradient>
    <path
       d="m 116.06,47.06 c 0.11,0 0.21,0.03 0.31,0.06 -0.1,-0.03 -0.21,-0.06 -0.31,-0.06 z"
       id="path4872"
       inkscape:connector-curvature="0"
       style="fill:url(#j)" />
    <linearGradient
       id="i"
       x1="-67.454002"
       x2="-67.454002"
       y1="47.386002"
       y2="47.146"
       gradientTransform="matrix(-1,0,0,1,49.124,0)"
       gradientUnits="userSpaceOnUse">
      <stop
         stop-color="#9E9E9E"
         offset="0"
         id="stop4874" />
      <stop
         stop-color="#616161"
         offset="1"
         id="stop4876" />
    </linearGradient>
    <path
       d="m 116.72,47.35 c -0.08,-0.08 -0.18,-0.14 -0.28,-0.19 0.1,0.04 0.19,0.1 0.28,0.19 z"
       id="path4879"
       inkscape:connector-curvature="0"
       style="fill:url(#i)" />
  </g>
  <g
     id="g4885"
     transform="matrix(0.53444676,0,0,0.53445695,-2.2019207,-2.9692397)"
     style="opacity:0.2">
    <path
       d="m 97.21,49.5 c 7.57,0 12.48,1.11 13.84,3.11 0.28,0.42 1.65,2.97 0.65,12.21 -1.38,12.61 -6.84,12.92 -15.88,13.42 l -0.77,0.04 c -0.98,0.06 -1.91,0.08 -2.79,0.08 -11.41,0 -13.2,-4.47 -14.79,-11.84 -1.74,-8.01 -0.92,-11.05 -0.27,-12.16 0.68,-1.18 2.48,-4.3 16.8,-4.81 1.12,-0.03 2.19,-0.05 3.21,-0.05 m 0,-1 c -1.01,0 -2.09,0.02 -3.24,0.06 -14.67,0.52 -16.77,3.81 -17.63,5.31 -0.87,1.48 -1.57,4.92 0.16,12.87 1.6,7.42 3.59,12.63 15.77,12.63 0.89,0 1.84,-0.03 2.85,-0.09 9.48,-0.54 16.08,-0.52 17.59,-14.35 0.93,-8.59 -0.11,-11.84 -0.82,-12.88 -0.65,-0.95 -2.86,-3.55 -14.68,-3.55 z"
       id="path4883"
       inkscape:connector-curvature="0"
       style="fill:#424242" />
  </g>
  <g
     id="g4889"
     transform="matrix(0.53444676,0,0,0.53445695,-2.2019207,-2.9692397)"
     style="opacity:0.2">
    <path
       d="m 95.46,46.12 c 2.86,0 5.92,0.15 9.1,0.45 11.42,1.06 15.73,2.12 17.23,2.61 l 0.07,4.21 c -1.14,0.53 -2.72,1.48 -3.96,3.02 -1.08,1.32 -1.64,4.01 -2.54,8.64 -0.79,4.06 -1.69,8.67 -3.07,11.42 -1.8,3.59 -8.52,5.66 -18.43,5.66 -3.27,0 -5.65,-0.24 -5.68,-0.24 -0.07,-0.01 -0.13,-0.01 -0.2,-0.01 -0.05,0 -0.1,0 -0.15,0.01 -0.03,0 -0.19,0.01 -0.46,0.01 -1.76,0 -7.74,-0.42 -10.85,-5.78 -3.42,-5.89 -4.89,-14.17 -5.26,-16.57 -0.06,-0.38 -0.23,-0.74 -0.49,-1.03 -1.01,-1.13 -3.26,-3.03 -6.96,-3.07 -3.16,0.03 -5.26,1.44 -6.46,2.61 -0.32,0.31 -0.52,0.71 -0.59,1.15 -0.25,1.73 -1.7,10.69 -5.31,16.91 -3.11,5.36 -9.09,5.78 -10.84,5.78 -0.26,0 -0.42,-0.01 -0.45,-0.01 -0.05,0 -0.1,-0.01 -0.16,-0.01 -0.07,0 -0.13,0 -0.2,0.01 -0.02,0 -2.41,0.24 -5.68,0.24 -9.91,0 -16.62,-2.06 -18.43,-5.66 C 14.31,73.72 13.41,69.11 12.62,65.05 11.72,60.41 11.16,57.73 10.09,56.41 8.85,54.87 7.27,53.92 6.13,53.39 L 6.2,49.18 c 1.5,-0.5 5.8,-1.55 17.23,-2.61 3.18,-0.3 6.24,-0.45 9.1,-0.45 13.06,0 19.6,3.05 22.33,4.87 0.2,0.14 0.43,0.23 0.67,0.29 0.68,0.15 1.37,0.23 2.05,0.23 0.19,0 0.39,-0.01 0.59,-0.02 1.7,-0.11 4.07,-0.36 5.14,-0.37 0.03,0 0.02,-0.12 0.05,-0.12 h 0.03 c 1.88,0 3.6,0.24 5.42,0.35 l 0.27,0.08 c 0.21,0.01 0.41,0.05 0.61,0.05 1.47,0 2.73,-0.33 3.52,-0.61 0.13,-0.05 0.25,-0.1 0.37,-0.17 2.78,-1.71 9.31,-4.58 21.88,-4.58 m -62.92,-2 c -2.8,0 -5.89,0.14 -9.28,0.45 C 5.21,46.26 4.23,47.94 4.23,47.94 l -0.11,6.81 c 0,0 2.69,0.77 4.43,2.93 1.74,2.13 2.55,14.07 5.37,19.7 2.9,5.79 13.45,6.76 20.21,6.76 3.42,0 5.88,-0.25 5.88,-0.25 0,0 0.22,0.02 0.6,0.02 2.07,0 8.93,-0.49 12.58,-6.78 3.73,-6.43 5.22,-15.32 5.56,-17.62 0.93,-0.91 2.58,-2.02 5.09,-2.05 2.86,0.03 4.61,1.47 5.45,2.4 0.42,2.75 1.94,11.13 5.51,17.27 3.64,6.28 10.51,6.78 12.58,6.78 0.39,0 0.6,-0.02 0.6,-0.02 0,0 2.45,0.25 5.88,0.25 6.76,0 17.31,-0.97 20.21,-6.76 2.82,-5.62 3.63,-17.56 5.37,-19.7 1.74,-2.16 4.43,-2.93 4.43,-2.93 l -0.11,-6.81 c 0,0 -0.97,-1.68 -19.02,-3.36 -3.39,-0.32 -6.48,-0.45 -9.28,-0.45 -12.82,0 -19.7,2.89 -22.92,4.88 -0.63,0.23 -1.65,0.51 -2.85,0.51 -0.16,0 -0.32,0 -0.48,-0.02 l -0.27,-0.02 c -1.86,-0.12 -3.62,-0.23 -5.57,-0.24 h -0.08 c -1.12,0.01 -3.51,0.14 -5.25,0.25 -0.16,0.01 -0.31,0.01 -0.46,0.01 -0.61,0 -1.15,-0.08 -1.61,-0.18 -2.97,-1.97 -9.89,-5.2 -23.43,-5.2 z"
       id="path4887"
       inkscape:connector-curvature="0"
       style="fill:#eeeeee" />
  </g>
</svg>
