<?xml version="1.0" encoding="UTF-8" standalone="no"?>
<svg
   xmlns:dc="http://purl.org/dc/elements/1.1/"
   xmlns:cc="http://creativecommons.org/ns#"
   xmlns:rdf="http://www.w3.org/1999/02/22-rdf-syntax-ns#"
   xmlns:svg="http://www.w3.org/2000/svg"
   xmlns="http://www.w3.org/2000/svg"
   xmlns:sodipodi="http://sodipodi.sourceforge.net/DTD/sodipodi-0.dtd"
   xmlns:inkscape="http://www.inkscape.org/namespaces/inkscape"
   height="64.000023"
   width="150.20282"
   version="1.1"
   id="svg878"
   sodipodi:docname="logo-white.svg"
   inkscape:version="0.92.4 (5da689c313, 2019-01-14)">
  <metadata
     id="metadata884">
    <rdf:RDF>
      <cc:Work
         rdf:about="">
        <dc:format>image/svg+xml</dc:format>
        <dc:type
           rdf:resource="http://purl.org/dc/dcmitype/StillImage" />
        <dc:title></dc:title>
      </cc:Work>
    </rdf:RDF>
  </metadata>
  <defs
     id="defs882" />
  <sodipodi:namedview
     pagecolor="#ffffff"
     bordercolor="#666666"
     borderopacity="1"
     objecttolerance="10"
     gridtolerance="10"
     guidetolerance="10"
     inkscape:pageopacity="0"
     inkscape:pageshadow="2"
     inkscape:window-width="1850"
     inkscape:window-height="1016"
     id="namedview880"
     showgrid="false"
     fit-margin-top="0"
     fit-margin-left="0"
     fit-margin-right="0"
     fit-margin-bottom="0"
     inkscape:zoom="1.6328125"
     inkscape:cx="210.1323"
     inkscape:cy="99.462931"
     inkscape:window-x="70"
     inkscape:window-y="27"
     inkscape:window-maximized="1"
     inkscape:current-layer="svg878" />
  <path
     d="M 26.819579,8.7314766e-4 C 16.335944,-0.09662685 4.1851077,7.9872131 0.67163361,16.296953 c -0.93988706,4.70417 -0.93257254,8.1558 0.2715895,12.52653 v 0.005 c 3.17785219,2.26345 4.52188119,8.16137 6.45771369,14.50871 3.7697402,13.99164 5.1029232,16.04407 14.8421492,19.03045 11.339072,2.26672 24.864701,2.02844 30.686759,-0.40027 4.601879,-1.92273 10.094183,-2.81605 14.134023,-16.2584 1.710871,-5.97713 1.956621,-13.56392 8.249351,-14.16673 3.451955,-0.0473 5.780633,1.76854 8.06592,10.39861 2.503696,9.45529 6.994387,18.17901 15.083167,19.88006 7.914414,1.74217 7.676044,2.13179 17.212514,2.17911 19.89051,-0.3895 25.39352,-5.75217 28.33985,-22.75095 2.27619,-7.4532 3.58924,-10.6641 5.09408,-12.577 1.39418,-3.83235 1.16494,-8.97076 0.87591,-13.80343 h -7.2e-4 l -0.0526,-0.0128 c -1.79897,-3.55351 -4.98125,-7.0195899 -9.38619,-9.9378999 -4.66486,-3.08684 -10.01714,-4.64847995 -15.4031,-4.61061995 l 7.3e-4,0.006 c -3.23173,0.0167 -6.47935,0.62014 -9.59095,1.81082995 -6.5752,2.51098 -7.89389,4.87105 -4.35894,7.80429 1.60167,1.3322899 3.22808,0.9239499 7.79647,-1.96014 3.17312,-2.00317 6.37805,-3.64157 7.12246,-3.64157 1.47936,0 7.19889,7.4813699 7.22983,9.4437699 l -0.0284,0.007 h -7.3e-4 c -0.45975,0.63812 -6.50915,1.28828 -13.83968,1.47028 -7.62503,0.18856 -20.470729,1.35634 -28.546041,2.5929 -13.310577,2.03848 -16.233807,2.03888 -31.297481,0.0441 -9.1386,-1.20999 -22.217223,-2.59404 -29.063619,-3.07636 -6.511503,-0.45793 -11.89039,-1.2189 -12.398556,-1.73689 h -7.28e-4 l -0.0043,7.3e-4 c -0.02403,-0.0182 -0.03876,-0.0497 -0.03839,-0.0661 0.0036,-0.5169 1.482743,-2.78534 3.286802,-5.0400399 l 3.281112,-4.10015 6.225227,3.93165 c 6.198448,3.9131599 9.65989,3.7667699 11.071176,-0.46782 C 42.652734,5.3360931 31.709709,0.04939315 26.820986,0.00826315 Z M 26.166911,19.673333 c 2.188554,0.015 4.683338,0.19336 7.526297,0.50977 22.844496,2.50551 32.301475,1.49224 28.762884,18.392 v 7.3e-4 c -3.247015,19.72962 -6.295216,19.12009 -27.773928,20.5889 -18.364563,0.31086 -21.798443,-6.2251 -23.76194,-21.33755 0.541483,-13.54385 3.428506,-18.2349 15.246687,-18.15383 z m 99.200519,0 c 11.81818,-0.0811 14.70449,4.60998 15.24598,18.15383 -1.9635,15.11246 -5.39667,21.64842 -23.76123,21.33755 -21.478714,-1.4688 -24.527624,-0.85928 -27.774639,-20.5889 v -7.3e-4 c -3.538591,-16.89976 5.919097,-15.88649 28.763599,-18.392 2.84295,-0.31641 5.33774,-0.49475 7.52629,-0.50977 z"
     id="path874"
     style="fill:#ffffff;fill-opacity:1;stroke-width:0.36401513"
     inkscape:connector-curvature="0" />
</svg>
